<svg xmlns="http://www.w3.org/2000/svg" viewBox="0 0 512 512" width="512" height="512">
  <rect width="512" height="512" fill="#fdf6ef"/>
<g fill="none" stroke="#171412" stroke-linecap="round" stroke-linejoin="round">
<path stroke-width="12.00" d="M256.00 415.00 Q259.37 432.74 273.05 444.52"/>
<path stroke-width="7.20" d="M273.05 444.52 Q267.90 456.03 272.67 467.70"/>
<path stroke-width="4.32" d="M272.67 467.70 Q267.34 473.60 263.75 480.70"/>
<path stroke-width="2.59" d="M263.75 480.70 Q258.50 481.76 253.23 482.75"/>
<path stroke-width="2.59" d="M263.75 480.70 Q262.41 485.90 261.76 491.23"/>
<path stroke-width="4.32" d="M272.67 467.70 Q272.87 476.22 278.99 482.15"/>
<path stroke-width="2.59" d="M278.99 482.15 Q279.54 487.76 276.66 492.61"/>
<path stroke-width="2.59" d="M278.99 482.15 Q282.09 486.77 287.12 489.13"/>
<path stroke-width="7.20" d="M273.05 444.52 Q285.74 444.21 294.43 453.47"/>
<path stroke-width="4.32" d="M294.43 453.47 Q298.25 460.42 303.40 466.43"/>
<path stroke-width="2.59" d="M303.40 466.43 Q302.06 472.16 305.49 476.95"/>
<path stroke-width="2.59" d="M303.40 466.43 Q308.38 468.71 313.86 468.79"/>
<path stroke-width="4.32" d="M294.43 453.47 Q302.48 455.99 310.17 452.50"/>
<path stroke-width="2.59" d="M310.17 452.50 Q315.52 454.21 318.92 458.69"/>
<path stroke-width="2.59" d="M310.17 452.50 Q314.56 449.40 319.39 447.05"/>
<path stroke-width="12.00" d="M256.00 415.00 Q253.60 433.84 256.00 452.68"/>
<path stroke-width="7.20" d="M256.00 452.68 Q244.29 460.32 241.94 474.11"/>
<path stroke-width="4.32" d="M241.94 474.11 Q232.88 473.45 224.91 477.80"/>
<path stroke-width="2.59" d="M224.91 477.80 Q219.41 475.56 213.64 474.14"/>
<path stroke-width="2.59" d="M224.91 477.80 Q220.87 482.17 216.15 485.79"/>
<path stroke-width="4.32" d="M241.94 474.11 Q240.20 482.82 241.94 491.53"/>
<path stroke-width="2.59" d="M241.94 491.53 Q240.24 497.33 236.45 502.03"/>
<path stroke-width="2.59" d="M241.94 491.53 Q245.16 496.52 247.60 501.94"/>
<path stroke-width="7.20" d="M256.00 452.68 Q267.28 460.43 270.68 473.69"/>
<path stroke-width="4.32" d="M270.68 473.69 Q269.73 482.54 272.45 491.02"/>
<path stroke-width="2.59" d="M272.45 491.02 Q268.51 495.99 268.88 502.32"/>
<path stroke-width="2.59" d="M272.45 491.02 Q277.32 494.72 279.80 500.31"/>
<path stroke-width="4.32" d="M270.68 473.69 Q278.28 477.95 285.97 482.04"/>
<path stroke-width="2.59" d="M285.97 482.04 Q288.60 487.44 289.32 493.40"/>
<path stroke-width="2.59" d="M285.97 482.04 Q291.68 480.40 297.57 479.62"/>
<path stroke-width="12.00" d="M256.00 415.00 Q242.65 430.61 235.81 449.97"/>
<path stroke-width="7.20" d="M235.81 449.97 Q224.58 457.98 212.05 463.74"/>
<path stroke-width="4.32" d="M212.05 463.74 Q202.74 462.93 193.40 462.94"/>
<path stroke-width="2.59" d="M193.40 462.94 Q186.48 462.33 182.30 456.78"/>
<path stroke-width="2.59" d="M193.40 462.94 Q188.52 467.13 182.55 469.55"/>
<path stroke-width="4.32" d="M212.05 463.74 Q208.15 472.43 201.19 478.92"/>
<path stroke-width="2.59" d="M201.19 478.92 Q196.60 484.32 189.53 483.97"/>
<path stroke-width="2.59" d="M201.19 478.92 Q200.51 485.38 202.55 491.55"/>
<path stroke-width="7.20" d="M235.81 449.97 Q238.55 463.62 236.65 477.42"/>
<path stroke-width="4.32" d="M236.65 477.42 Q229.96 483.94 223.79 490.95"/>
<path stroke-width="2.59" d="M223.79 490.95 Q217.27 489.02 211.13 491.93"/>
<path stroke-width="2.59" d="M223.79 490.95 Q223.30 497.50 219.59 502.93"/>
<path stroke-width="4.32" d="M236.65 477.42 Q238.90 486.78 245.32 493.96"/>
<path stroke-width="2.59" d="M245.32 493.96 Q246.62 500.60 243.28 506.49"/>
<path stroke-width="2.59" d="M245.32 493.96 Q250.15 498.09 255.38 501.70"/>
<path stroke-width="12.00" d="M256.00 415.00 Q267.53 430.89 265.49 450.41"/>
<path stroke-width="7.20" d="M265.49 450.41 Q267.32 463.55 260.28 474.80"/>
<path stroke-width="4.32" d="M260.28 474.80 Q253.20 479.51 247.01 485.35"/>
<path stroke-width="2.59" d="M247.01 485.35 Q241.28 487.65 235.48 485.52"/>
<path stroke-width="2.59" d="M247.01 485.35 Q244.34 490.84 245.67 496.80"/>
<path stroke-width="4.32" d="M260.28 474.80 Q260.26 483.57 264.64 491.18"/>
<path stroke-width="2.59" d="M264.64 491.18 Q262.07 496.34 259.66 501.58"/>
<path stroke-width="2.59" d="M264.64 491.18 Q268.28 495.85 273.64 498.38"/>
<path stroke-width="7.20" d="M265.49 450.41 Q272.37 460.86 280.84 470.06"/>
<path stroke-width="4.32" d="M280.84 470.06 Q281.50 478.53 281.03 487.01"/>
<path stroke-width="2.59" d="M281.03 487.01 Q279.75 492.74 276.46 497.59"/>
<path stroke-width="2.59" d="M281.03 487.01 Q284.92 491.32 287.70 496.41"/>
<path stroke-width="4.32" d="M280.84 470.06 Q288.20 475.72 297.32 474.04"/>
<path stroke-width="2.59" d="M297.32 474.04 Q302.83 476.39 306.31 481.26"/>
<path stroke-width="2.59" d="M297.32 474.04 Q301.50 469.71 307.37 468.38"/>
<path stroke-width="12.00" d="M256.00 415.00 Q249.53 431.29 246.46 448.54"/>
<path stroke-width="7.20" d="M246.46 448.54 Q237.07 455.96 226.06 460.63"/>
<path stroke-width="4.32" d="M226.06 460.63 Q219.05 455.33 210.39 456.80"/>
<path stroke-width="2.59" d="M210.39 456.80 Q208.75 451.25 204.07 447.84"/>
<path stroke-width="2.59" d="M210.39 456.80 Q204.43 456.05 199.91 460.00"/>
<path stroke-width="4.32" d="M226.06 460.63 Q219.01 465.45 216.48 473.61"/>
<path stroke-width="2.59" d="M216.48 473.61 Q210.95 473.83 205.69 475.52"/>
<path stroke-width="2.59" d="M216.48 473.61 Q217.26 479.41 214.03 484.30"/>
<path stroke-width="7.20" d="M246.46 448.54 Q246.84 461.10 255.00 470.66"/>
<path stroke-width="4.32" d="M255.00 470.66 Q251.22 477.89 249.76 485.92"/>
<path stroke-width="2.59" d="M249.76 485.92 Q244.05 487.22 240.62 491.98"/>
<path stroke-width="2.59" d="M249.76 485.92 Q254.42 489.87 254.12 495.98"/>
<path stroke-width="4.32" d="M255.00 470.66 Q261.50 475.43 268.16 479.98"/>
<path stroke-width="2.59" d="M268.16 479.98 Q267.05 485.78 270.22 490.75"/>
<path stroke-width="2.59" d="M268.16 479.98 Q273.52 481.70 279.09 480.85"/>
</g>
<g fill="none" stroke="#171412" stroke-linecap="round" stroke-linejoin="round">
<path stroke-width="18.00" d="M256.00 415.00 Q269.28 376.00 256.00 337.00"/>
<path stroke-width="11.70" d="M256.00 337.00 Q250.53 310.33 230.48 291.91"/>
<path stroke-width="7.61" d="M230.48 291.91 Q217.72 280.06 202.94 270.82"/>
<path stroke-width="4.94" d="M202.94 270.82 Q192.06 266.21 180.35 267.80"/>
<path stroke-width="3.21" d="M180.35 267.80 Q172.56 265.42 165.02 268.50"/>
<path stroke-width="2.09" d="M165.02 268.50 Q161.77 273.21 156.12 274.09"/>
<path stroke-width="1.36" d="M156.12 274.09 Q153.08 276.79 150.01 279.45"/>
<path stroke-width="1.36" d="M156.12 274.09 Q152.98 272.02 149.32 272.87"/>
<path stroke-width="2.09" d="M165.02 268.50 Q161.41 264.36 156.05 263.18"/>
<path stroke-width="1.36" d="M156.05 263.18 Q152.68 262.30 149.21 262.21"/>
<path stroke-width="1.36" d="M156.05 263.18 Q153.61 260.27 153.84 256.48"/>
<path stroke-width="3.21" d="M180.35 267.80 Q173.86 263.68 169.04 257.67"/>
<path stroke-width="2.09" d="M169.04 257.67 Q164.84 254.89 159.81 254.56"/>
<path stroke-width="1.36" d="M159.81 254.56 Q156.66 255.80 153.29 256.04"/>
<path stroke-width="1.36" d="M159.81 254.56 Q157.64 251.82 155.70 248.92"/>
<path stroke-width="2.09" d="M169.04 257.67 Q168.49 252.39 165.63 247.91"/>
<path stroke-width="1.36" d="M165.63 247.91 Q162.97 245.92 160.02 244.39"/>
<path stroke-width="1.36" d="M165.63 247.91 Q165.09 244.36 167.27 241.51"/>
<path stroke-width="4.94" d="M202.94 270.82 Q199.46 259.84 199.39 248.31"/>
<path stroke-width="3.21" d="M199.39 248.31 Q193.98 242.13 190.39 234.74"/>
<path stroke-width="2.09" d="M190.39 234.74 Q186.64 229.64 180.83 227.10"/>
<path stroke-width="1.36" d="M180.83 227.10 Q176.18 226.32 171.48 225.94"/>
<path stroke-width="1.36" d="M180.83 227.10 Q179.86 222.93 178.17 218.99"/>
<path stroke-width="2.09" d="M190.39 234.74 Q190.21 228.92 190.30 223.09"/>
<path stroke-width="1.36" d="M190.30 223.09 Q186.61 220.29 184.66 216.10"/>
<path stroke-width="1.36" d="M190.30 223.09 Q193.49 219.74 193.82 215.13"/>
<path stroke-width="3.21" d="M199.39 248.31 Q200.29 240.88 204.23 234.52"/>
<path stroke-width="2.09" d="M204.23 234.52 Q204.85 228.96 201.37 224.57"/>
<path stroke-width="1.36" d="M201.37 224.57 Q198.51 222.49 197.46 219.11"/>
<path stroke-width="1.36" d="M201.37 224.57 Q203.51 221.52 203.90 217.82"/>
<path stroke-width="2.09" d="M204.23 234.52 Q209.89 232.33 212.31 226.75"/>
<path stroke-width="1.36" d="M212.31 226.75 Q212.65 223.07 212.16 219.41"/>
<path stroke-width="1.36" d="M212.31 226.75 Q216.24 225.56 220.17 224.35"/>
<path stroke-width="7.61" d="M230.48 291.91 Q237.68 274.68 230.83 257.30"/>
<path stroke-width="4.94" d="M230.83 257.30 Q224.81 246.42 216.52 237.15"/>
<path stroke-width="3.21" d="M216.52 237.15 Q209.39 232.62 201.43 229.80"/>
<path stroke-width="2.09" d="M201.43 229.80 Q195.81 227.83 189.84 227.71"/>
<path stroke-width="1.36" d="M189.84 227.71 Q185.68 229.80 181.01 229.69"/>
<path stroke-width="1.36" d="M189.84 227.71 Q186.08 226.07 184.05 222.50"/>
<path stroke-width="2.09" d="M201.43 229.80 Q200.22 224.35 197.32 219.59"/>
<path stroke-width="1.36" d="M197.32 219.59 Q193.58 217.61 191.52 213.91"/>
<path stroke-width="1.36" d="M197.32 219.59 Q197.47 215.87 199.65 212.85"/>
<path stroke-width="3.21" d="M216.52 237.15 Q216.83 228.11 216.40 219.07"/>
<path stroke-width="2.09" d="M216.40 219.07 Q211.62 215.20 209.93 209.27"/>
<path stroke-width="1.36" d="M209.93 209.27 Q205.20 208.91 201.25 206.29"/>
<path stroke-width="1.36" d="M209.93 209.27 Q208.93 204.80 211.15 200.80"/>
<path stroke-width="2.09" d="M216.40 219.07 Q219.34 213.18 222.42 207.37"/>
<path stroke-width="1.36" d="M222.42 207.37 Q222.31 202.25 222.06 197.13"/>
<path stroke-width="1.36" d="M222.42 207.37 Q227.32 205.89 230.01 201.53"/>
<path stroke-width="4.94" d="M230.83 257.30 Q238.69 248.89 242.80 238.14"/>
<path stroke-width="3.21" d="M242.80 238.14 Q240.20 230.93 240.59 223.27"/>
<path stroke-width="2.09" d="M240.59 223.27 Q236.24 219.57 234.43 214.15"/>
<path stroke-width="1.36" d="M234.43 214.15 Q230.65 213.29 228.41 210.12"/>
<path stroke-width="1.36" d="M234.43 214.15 Q232.86 210.63 233.49 206.83"/>
<path stroke-width="2.09" d="M240.59 223.27 Q244.65 219.04 246.92 213.64"/>
<path stroke-width="1.36" d="M246.92 213.64 Q247.58 209.24 246.40 204.96"/>
<path stroke-width="1.36" d="M246.92 213.64 Q250.14 210.77 254.37 209.97"/>
<path stroke-width="3.21" d="M242.80 238.14 Q249.23 234.37 256.41 232.42"/>
<path stroke-width="2.09" d="M256.41 232.42 Q258.05 226.99 260.08 221.69"/>
<path stroke-width="1.36" d="M260.08 221.69 Q259.14 218.14 257.07 215.11"/>
<path stroke-width="1.36" d="M260.08 221.69 Q263.27 219.44 265.76 216.43"/>
<path stroke-width="2.09" d="M256.41 232.42 Q261.82 231.60 267.27 231.10"/>
<path stroke-width="1.36" d="M267.27 231.10 Q268.96 227.35 271.83 224.41"/>
<path stroke-width="1.36" d="M267.27 231.10 Q270.84 231.83 274.35 232.76"/>
<path stroke-width="11.70" d="M256.00 337.00 Q255.35 309.91 257.17 282.87"/>
<path stroke-width="7.61" d="M257.17 282.87 Q250.51 266.35 240.50 251.61"/>
<path stroke-width="4.94" d="M240.50 251.61 Q228.41 245.19 221.71 233.25"/>
<path stroke-width="3.21" d="M221.71 233.25 Q210.82 232.64 202.69 225.37"/>
<path stroke-width="2.09" d="M202.69 225.37 Q194.77 223.60 187.46 227.11"/>
<path stroke-width="1.36" d="M187.46 227.11 Q182.23 227.14 177.90 230.09"/>
<path stroke-width="1.36" d="M187.46 227.11 Q183.39 223.88 178.79 221.48"/>
<path stroke-width="2.09" d="M202.69 225.37 Q200.07 218.94 195.11 214.08"/>
<path stroke-width="1.36" d="M195.11 214.08 Q191.42 210.08 186.47 207.78"/>
<path stroke-width="1.36" d="M195.11 214.08 Q197.21 209.67 196.13 204.90"/>
<path stroke-width="3.21" d="M221.71 233.25 Q222.94 222.96 216.37 214.95"/>
<path stroke-width="2.09" d="M216.37 214.95 Q213.15 208.77 208.43 203.63"/>
<path stroke-width="1.36" d="M208.43 203.63 Q203.04 203.83 198.83 200.47"/>
<path stroke-width="1.36" d="M208.43 203.63 Q207.62 198.64 208.30 193.64"/>
<path stroke-width="2.09" d="M216.37 214.95 Q219.54 209.60 221.26 203.63"/>
<path stroke-width="1.36" d="M221.26 203.63 Q220.12 199.68 221.10 195.69"/>
<path stroke-width="1.36" d="M221.26 203.63 Q225.45 202.04 228.05 198.40"/>
<path stroke-width="4.94" d="M240.50 251.61 Q240.17 239.38 239.95 227.15"/>
<path stroke-width="3.21" d="M239.95 227.15 Q233.68 219.88 232.52 210.35"/>
<path stroke-width="2.09" d="M232.52 210.35 Q227.45 206.40 222.69 202.08"/>
<path stroke-width="1.36" d="M222.69 202.08 Q217.42 202.80 212.87 200.06"/>
<path stroke-width="1.36" d="M222.69 202.08 Q223.44 197.51 221.45 193.33"/>
<path stroke-width="2.09" d="M232.52 210.35 Q231.03 204.20 233.23 198.26"/>
<path stroke-width="1.36" d="M233.23 198.26 Q232.97 193.77 230.05 190.34"/>
<path stroke-width="1.36" d="M233.23 198.26 Q235.99 195.17 238.78 192.12"/>
<path stroke-width="3.21" d="M239.95 227.15 Q244.67 220.74 247.07 213.15"/>
<path stroke-width="2.09" d="M247.07 213.15 Q248.38 206.81 245.12 201.22"/>
<path stroke-width="1.36" d="M245.12 201.22 Q242.80 197.94 239.79 195.28"/>
<path stroke-width="1.36" d="M245.12 201.22 Q245.15 196.94 248.25 194.00"/>
<path stroke-width="2.09" d="M247.07 213.15 Q252.65 211.73 256.85 207.78"/>
<path stroke-width="1.36" d="M256.85 207.78 Q258.19 204.12 260.89 201.31"/>
<path stroke-width="1.36" d="M256.85 207.78 Q261.19 208.35 264.76 205.82"/>
<path stroke-width="7.61" d="M257.17 282.87 Q262.13 260.75 281.52 249.00"/>
<path stroke-width="4.94" d="M281.52 249.00 Q274.07 233.39 279.34 216.92"/>
<path stroke-width="3.21" d="M279.34 216.92 Q273.63 207.00 266.64 197.95"/>
<path stroke-width="2.09" d="M266.64 197.95 Q257.44 197.60 250.40 191.66"/>
<path stroke-width="1.36" d="M250.40 191.66 Q243.53 191.45 237.32 194.40"/>
<path stroke-width="1.36" d="M250.40 191.66 Q246.18 187.29 245.41 181.27"/>
<path stroke-width="2.09" d="M266.64 197.95 Q268.55 189.00 266.09 180.18"/>
<path stroke-width="1.36" d="M266.09 180.18 Q263.43 173.97 257.52 170.69"/>
<path stroke-width="1.36" d="M266.09 180.18 Q270.98 175.36 272.59 168.69"/>
<path stroke-width="3.21" d="M279.34 216.92 Q282.49 205.12 288.47 194.48"/>
<path stroke-width="2.09" d="M288.47 194.48 Q284.57 186.90 285.35 178.41"/>
<path stroke-width="1.36" d="M285.35 178.41 Q281.45 173.22 275.67 170.26"/>
<path stroke-width="1.36" d="M285.35 178.41 Q288.78 173.58 287.64 167.76"/>
<path stroke-width="2.09" d="M288.47 194.48 Q292.97 187.60 299.84 183.08"/>
<path stroke-width="1.36" d="M299.84 183.08 Q301.72 177.27 302.96 171.29"/>
<path stroke-width="1.36" d="M299.84 183.08 Q304.64 178.71 311.11 179.08"/>
<path stroke-width="4.94" d="M281.52 249.00 Q294.98 240.20 307.78 230.45"/>
<path stroke-width="3.21" d="M307.78 230.45 Q306.89 218.96 314.73 210.52"/>
<path stroke-width="2.09" d="M314.73 210.52 Q310.76 204.29 310.06 196.93"/>
<path stroke-width="1.36" d="M310.06 196.93 Q305.89 194.72 302.16 191.85"/>
<path stroke-width="1.36" d="M310.06 196.93 Q309.46 191.91 310.92 187.08"/>
<path stroke-width="2.09" d="M314.73 210.52 Q323.17 208.77 327.64 201.40"/>
<path stroke-width="1.36" d="M327.64 201.40 Q327.91 196.03 329.60 190.93"/>
<path stroke-width="1.36" d="M327.64 201.40 Q332.81 198.12 338.78 199.52"/>
<path stroke-width="3.21" d="M307.78 230.45 Q319.75 228.69 331.43 225.54"/>
<path stroke-width="2.09" d="M331.43 225.54 Q335.38 216.89 341.22 209.37"/>
<path stroke-width="1.36" d="M341.22 209.37 Q338.90 202.62 340.26 195.61"/>
<path stroke-width="1.36" d="M341.22 209.37 Q345.15 202.92 352.24 200.31"/>
<path stroke-width="2.09" d="M331.43 225.54 Q340.04 224.47 347.28 229.26"/>
<path stroke-width="1.36" d="M347.28 229.26 Q353.09 229.13 357.16 224.96"/>
<path stroke-width="1.36" d="M347.28 229.26 Q351.96 233.09 357.82 234.58"/>
<path stroke-width="11.70" d="M256.00 337.00 Q262.18 309.71 286.18 295.31"/>
<path stroke-width="7.61" d="M286.18 295.31 Q283.49 277.51 290.10 260.77"/>
<path stroke-width="4.94" d="M290.10 260.77 Q291.45 247.78 284.30 236.85"/>
<path stroke-width="3.21" d="M284.30 236.85 Q277.00 232.53 271.57 226.01"/>
<path stroke-width="2.09" d="M271.57 226.01 Q265.64 224.82 259.61 224.28"/>
<path stroke-width="1.36" d="M259.61 224.28 Q256.05 226.92 251.61 226.87"/>
<path stroke-width="1.36" d="M259.61 224.28 Q255.77 221.67 254.08 217.34"/>
<path stroke-width="2.09" d="M271.57 226.01 Q271.29 219.37 268.08 213.56"/>
<path stroke-width="1.36" d="M268.08 213.56 Q264.48 210.96 261.28 207.88"/>
<path stroke-width="1.36" d="M268.08 213.56 Q270.78 209.31 271.22 204.30"/>
<path stroke-width="3.21" d="M284.30 236.85 Q286.80 229.19 286.70 221.14"/>
<path stroke-width="2.09" d="M286.70 221.14 Q284.34 215.66 281.06 210.67"/>
<path stroke-width="1.36" d="M281.06 210.67 Q277.60 208.79 274.80 206.02"/>
<path stroke-width="1.36" d="M281.06 210.67 Q280.93 206.03 282.94 201.85"/>
<path stroke-width="2.09" d="M286.70 221.14 Q288.64 215.25 293.56 211.49"/>
<path stroke-width="1.36" d="M293.56 211.49 Q293.93 207.18 293.35 202.91"/>
<path stroke-width="1.36" d="M293.56 211.49 Q297.66 210.73 301.05 208.29"/>
<path stroke-width="4.94" d="M290.10 260.77 Q299.89 252.96 303.76 241.05"/>
<path stroke-width="3.21" d="M303.76 241.05 Q303.11 231.70 304.93 222.50"/>
<path stroke-width="2.09" d="M304.93 222.50 Q300.76 217.67 300.20 211.31"/>
<path stroke-width="1.36" d="M300.20 211.31 Q296.33 209.06 292.64 206.54"/>
<path stroke-width="1.36" d="M300.20 211.31 Q302.48 207.53 302.02 203.14"/>
<path stroke-width="2.09" d="M304.93 222.50 Q310.42 217.32 311.60 209.87"/>
<path stroke-width="1.36" d="M311.60 209.87 Q308.89 205.11 310.51 199.88"/>
<path stroke-width="1.36" d="M311.60 209.87 Q315.50 207.25 319.45 204.69"/>
<path stroke-width="3.21" d="M303.76 241.05 Q310.78 234.25 320.43 232.69"/>
<path stroke-width="2.09" d="M320.43 232.69 Q325.91 228.46 326.97 221.62"/>
<path stroke-width="1.36" d="M326.97 221.62 Q325.79 216.68 325.80 211.61"/>
<path stroke-width="1.36" d="M326.97 221.62 Q331.29 219.81 333.93 215.95"/>
<path stroke-width="2.09" d="M320.43 232.69 Q326.91 233.82 333.49 233.62"/>
<path stroke-width="1.36" d="M333.49 233.62 Q337.49 231.32 339.51 227.18"/>
<path stroke-width="1.36" d="M333.49 233.62 Q338.77 234.75 342.01 239.08"/>
<path stroke-width="7.61" d="M286.18 295.31 Q302.83 290.63 317.49 281.46"/>
<path stroke-width="4.94" d="M317.49 281.46 Q325.92 271.03 331.84 258.99"/>
<path stroke-width="3.21" d="M331.84 258.99 Q335.80 250.62 333.65 241.61"/>
<path stroke-width="2.09" d="M333.65 241.61 Q332.43 235.64 329.47 230.31"/>
<path stroke-width="1.36" d="M329.47 230.31 Q325.87 228.30 323.42 224.97"/>
<path stroke-width="1.36" d="M329.47 230.31 Q332.16 226.62 332.51 222.07"/>
<path stroke-width="2.09" d="M333.65 241.61 Q336.87 235.63 340.51 229.90"/>
<path stroke-width="1.36" d="M340.51 229.90 Q339.58 224.74 337.81 219.80"/>
<path stroke-width="1.36" d="M340.51 229.90 Q344.69 226.61 349.67 224.75"/>
<path stroke-width="3.21" d="M331.84 258.99 Q340.52 254.96 348.73 250.05"/>
<path stroke-width="2.09" d="M348.73 250.05 Q353.40 244.09 356.56 237.20"/>
<path stroke-width="1.36" d="M356.56 237.20 Q356.74 232.24 354.60 227.75"/>
<path stroke-width="1.36" d="M356.56 237.20 Q361.55 235.40 365.44 231.79"/>
<path stroke-width="2.09" d="M348.73 250.05 Q355.66 252.19 362.13 248.90"/>
<path stroke-width="1.36" d="M362.13 248.90 Q366.58 245.66 367.96 240.34"/>
<path stroke-width="1.36" d="M362.13 248.90 Q366.61 250.30 370.42 253.03"/>
<path stroke-width="4.94" d="M317.49 281.46 Q329.37 278.27 341.43 280.67"/>
<path stroke-width="3.21" d="M341.43 280.67 Q346.83 274.05 353.36 268.56"/>
<path stroke-width="2.09" d="M353.36 268.56 Q354.35 262.68 353.53 256.78"/>
<path stroke-width="1.36" d="M353.53 256.78 Q350.20 253.58 348.66 249.22"/>
<path stroke-width="1.36" d="M353.53 256.78 Q355.72 252.99 357.54 249.01"/>
<path stroke-width="2.09" d="M353.36 268.56 Q359.70 268.50 365.04 265.09"/>
<path stroke-width="1.36" d="M365.04 265.09 Q366.14 260.82 369.75 258.28"/>
<path stroke-width="1.36" d="M365.04 265.09 Q369.80 264.53 374.30 266.20"/>
<path stroke-width="3.21" d="M341.43 280.67 Q350.01 282.79 357.52 287.45"/>
<path stroke-width="2.09" d="M357.52 287.45 Q363.50 285.25 369.64 283.55"/>
<path stroke-width="1.36" d="M369.64 283.55 Q373.88 280.87 375.05 275.99"/>
<path stroke-width="1.36" d="M369.64 283.55 Q374.14 281.90 378.58 283.72"/>
<path stroke-width="2.09" d="M357.52 287.45 Q361.59 291.27 365.03 295.67"/>
<path stroke-width="1.36" d="M365.03 295.67 Q369.51 294.51 373.60 296.69"/>
<path stroke-width="1.36" d="M365.03 295.67 Q365.00 300.40 368.37 303.72"/>
</g>
<g fill="#171412">
      <path d="M228 74
               L234 44
               L246 60
               L256      38
               L266 60
               L278 44
               L284 74 Z"/>
      <rect x="226" y="74" width="60" height="6"/>
    </g>
<polygon points="256.00,14.00 254.20,18.88 249.07,18.00 252.40,22.00 249.07,26.00 254.20,25.12 256.00,30.00 257.80,25.12 262.93,26.00 259.60,22.00 262.93,18.00 257.80,18.88" fill="#171412"/>
<polygon points="184.00,55.00 182.43,59.27 177.94,58.50 180.85,62.00 177.94,65.50 182.43,64.73 184.00,69.00 185.57,64.73 190.06,65.50 187.15,62.00 190.06,58.50 185.57,59.27" fill="#171412"/>
<polygon points="328.00,55.00 326.43,59.27 321.94,58.50 324.85,62.00 321.94,65.50 326.43,64.73 328.00,69.00 329.57,64.73 334.06,65.50 331.15,62.00 334.06,58.50 329.57,59.27" fill="#171412"/>
<polygon points="122.00,116.00 120.65,119.66 116.80,119.00 119.30,122.00 116.80,125.00 120.65,124.34 122.00,128.00 123.35,124.34 127.20,125.00 124.70,122.00 127.20,119.00 123.35,119.66" fill="#171412"/>
<polygon points="390.00,116.00 388.65,119.66 384.80,119.00 387.30,122.00 384.80,125.00 388.65,124.34 390.00,128.00 391.35,124.34 395.20,125.00 392.70,122.00 395.20,119.00 391.35,119.66" fill="#171412"/>
<polygon points="70.00,195.00 68.88,198.05 65.67,197.50 67.75,200.00 65.67,202.50 68.88,201.95 70.00,205.00 71.12,201.95 74.33,202.50 72.25,200.00 74.33,197.50 71.12,198.05" fill="#171412"/>
<polygon points="442.00,195.00 440.88,198.05 437.67,197.50 439.75,200.00 437.67,202.50 440.88,201.95 442.00,205.00 443.12,201.95 446.33,202.50 444.25,200.00 446.33,197.50 443.12,198.05" fill="#171412"/>
</svg>
