<svg xmlns="http://www.w3.org/2000/svg" viewBox="0 0 512 512" width="512" height="512">
  <rect width="512" height="512" fill="#fdf6ef"/>

    <g fill="none" stroke="#171412" stroke-width="9" stroke-linecap="round" stroke-linejoin="round">
      <!-- Left page -->
      <path d="M256 330 Q186 316 96 330 L96 430 Q186 408 256 430 Z" fill="#fdf6ef"/>
      <!-- Right page -->
      <path d="M256 330 Q326 316 416 330 L416 430 Q326 408 256 430 Z" fill="#fdf6ef"/>
      <!-- Spine -->
      <path d="M256 330 V430"/>
      <!-- Page ruling, left -->
      <path stroke-width="4" d="M130 360 Q196 346 240 350"/>
      <path stroke-width="4" d="M130 388 Q196 374 240 378"/>
      <!-- Page ruling, right -->
      <path stroke-width="4" d="M382 360 Q316 346 272 350"/>
      <path stroke-width="4" d="M382 388 Q316 374 272 378"/>
    </g>
    
<g fill="none" stroke="#171412" stroke-linecap="round" stroke-linejoin="round">
<path stroke-width="16.00" d="M256.00 330.00 Q241.42 291.00 256.00 252.00"/>
<path stroke-width="10.56" d="M256.00 252.00 Q238.58 233.00 224.45 211.45"/>
<path stroke-width="6.97" d="M224.45 211.45 Q210.98 199.93 193.54 196.78"/>
<path stroke-width="4.60" d="M193.54 196.78 Q181.96 195.76 170.32 195.65"/>
<path stroke-width="3.04" d="M170.32 195.65 Q162.99 198.28 155.20 198.12"/>
<path stroke-width="2.00" d="M155.20 198.12 Q150.90 201.81 145.50 203.49"/>
<path stroke-width="1.32" d="M145.50 203.49 Q143.62 206.73 140.44 208.70"/>
<path stroke-width="1.32" d="M145.50 203.49 Q141.77 201.44 137.68 200.30"/>
<path stroke-width="2.00" d="M155.20 198.12 Q150.27 195.06 145.89 191.26"/>
<path stroke-width="1.32" d="M145.89 191.26 Q141.85 189.34 137.41 189.79"/>
<path stroke-width="1.32" d="M145.89 191.26 Q147.09 187.32 145.19 183.65"/>
<path stroke-width="3.04" d="M170.32 195.65 Q166.02 188.75 159.65 183.68"/>
<path stroke-width="2.00" d="M159.65 183.68 Q154.30 181.02 148.32 180.77"/>
<path stroke-width="1.32" d="M148.32 180.77 Q143.89 181.78 139.38 181.16"/>
<path stroke-width="1.32" d="M148.32 180.77 Q146.83 176.20 143.10 173.15"/>
<path stroke-width="2.00" d="M159.65 183.68 Q156.15 178.18 157.59 171.82"/>
<path stroke-width="1.32" d="M157.59 171.82 Q153.89 168.83 150.40 165.59"/>
<path stroke-width="1.32" d="M157.59 171.82 Q160.83 168.94 161.39 164.64"/>
<path stroke-width="4.60" d="M193.54 196.78 Q189.49 186.21 185.99 175.44"/>
<path stroke-width="3.04" d="M185.99 175.44 Q178.73 170.92 174.80 163.32"/>
<path stroke-width="2.00" d="M174.80 163.32 Q168.62 162.79 164.13 158.50"/>
<path stroke-width="1.32" d="M164.13 158.50 Q160.06 159.96 155.96 158.60"/>
<path stroke-width="1.32" d="M164.13 158.50 Q161.54 154.75 159.92 150.49"/>
<path stroke-width="2.00" d="M174.80 163.32 Q172.50 157.50 173.64 151.34"/>
<path stroke-width="1.32" d="M173.64 151.34 Q171.92 147.17 169.06 143.68"/>
<path stroke-width="1.32" d="M173.64 151.34 Q176.21 147.77 179.04 144.39"/>
<path stroke-width="3.04" d="M185.99 175.44 Q188.12 168.40 188.70 161.06"/>
<path stroke-width="2.00" d="M188.70 161.06 Q184.91 157.60 183.86 152.57"/>
<path stroke-width="1.32" d="M183.86 152.57 Q181.52 149.57 177.93 148.27"/>
<path stroke-width="1.32" d="M183.86 152.57 Q184.27 148.93 184.93 145.31"/>
<path stroke-width="2.00" d="M188.70 161.06 Q192.00 156.06 197.58 153.90"/>
<path stroke-width="1.32" d="M197.58 153.90 Q197.76 149.50 199.24 145.35"/>
<path stroke-width="1.32" d="M197.58 153.90 Q202.14 153.99 206.55 152.82"/>
<path stroke-width="6.97" d="M224.45 211.45 Q226.71 193.67 222.11 176.34"/>
<path stroke-width="4.60" d="M222.11 176.34 Q219.03 164.54 211.50 154.94"/>
<path stroke-width="3.04" d="M211.50 154.94 Q205.18 148.36 196.15 147.05"/>
<path stroke-width="2.00" d="M196.15 147.05 Q190.41 147.16 184.69 146.60"/>
<path stroke-width="1.32" d="M184.69 146.60 Q180.18 147.23 176.33 149.65"/>
<path stroke-width="1.32" d="M184.69 146.60 Q182.97 142.45 179.80 139.26"/>
<path stroke-width="2.00" d="M196.15 147.05 Q192.52 142.06 190.61 136.19"/>
<path stroke-width="1.32" d="M190.61 136.19 Q186.52 134.99 184.17 131.43"/>
<path stroke-width="1.32" d="M190.61 136.19 Q191.39 132.30 192.91 128.62"/>
<path stroke-width="3.04" d="M211.50 154.94 Q210.17 145.56 213.94 136.87"/>
<path stroke-width="2.00" d="M213.94 136.87 Q211.64 130.49 207.53 125.08"/>
<path stroke-width="1.32" d="M207.53 125.08 Q203.20 123.42 200.59 119.58"/>
<path stroke-width="1.32" d="M207.53 125.08 Q208.57 119.97 209.03 114.77"/>
<path stroke-width="2.00" d="M213.94 136.87 Q216.70 129.65 223.81 126.60"/>
<path stroke-width="1.32" d="M223.81 126.60 Q223.86 121.84 222.92 117.17"/>
<path stroke-width="1.32" d="M223.81 126.60 Q228.77 124.42 233.86 122.55"/>
<path stroke-width="4.60" d="M222.11 176.34 Q227.90 164.03 235.53 152.76"/>
<path stroke-width="3.04" d="M235.53 152.76 Q236.31 143.40 234.08 134.28"/>
<path stroke-width="2.00" d="M234.08 134.28 Q231.21 128.02 225.45 124.24"/>
<path stroke-width="1.32" d="M225.45 124.24 Q220.27 125.05 216.02 121.97"/>
<path stroke-width="1.32" d="M225.45 124.24 Q223.77 119.20 223.56 113.89"/>
<path stroke-width="2.00" d="M234.08 134.28 Q239.38 130.42 240.45 123.95"/>
<path stroke-width="1.32" d="M240.45 123.95 Q239.10 119.21 239.79 114.33"/>
<path stroke-width="1.32" d="M240.45 123.95 Q243.74 121.68 247.33 119.95"/>
<path stroke-width="3.04" d="M235.53 152.76 Q242.72 147.13 251.07 143.42"/>
<path stroke-width="2.00" d="M251.07 143.42 Q252.29 136.66 256.23 131.04"/>
<path stroke-width="1.32" d="M256.23 131.04 Q256.11 125.99 253.49 121.68"/>
<path stroke-width="1.32" d="M256.23 131.04 Q259.46 127.16 264.16 125.30"/>
<path stroke-width="2.00" d="M251.07 143.42 Q258.36 144.80 265.17 141.86"/>
<path stroke-width="1.32" d="M265.17 141.86 Q267.77 136.82 271.71 132.75"/>
<path stroke-width="1.32" d="M265.17 141.86 Q269.43 144.43 274.35 143.63"/>
<path stroke-width="10.56" d="M256.00 252.00 Q267.73 227.83 282.44 205.36"/>
<path stroke-width="6.97" d="M282.44 205.36 Q285.17 183.92 276.87 163.96"/>
<path stroke-width="4.60" d="M276.87 163.96 Q270.43 148.34 255.27 140.87"/>
<path stroke-width="3.04" d="M255.27 140.87 Q245.51 135.87 234.54 136.03"/>
<path stroke-width="2.00" d="M234.54 136.03 Q226.53 133.78 218.66 136.53"/>
<path stroke-width="1.32" d="M218.66 136.53 Q215.23 140.60 210.22 142.36"/>
<path stroke-width="1.32" d="M218.66 136.53 Q213.73 134.14 210.60 129.65"/>
<path stroke-width="2.00" d="M234.54 136.03 Q232.64 127.44 225.63 122.14"/>
<path stroke-width="1.32" d="M225.63 122.14 Q220.02 119.50 215.02 115.82"/>
<path stroke-width="1.32" d="M225.63 122.14 Q226.44 116.68 228.05 111.39"/>
<path stroke-width="3.04" d="M255.27 140.87 Q252.53 129.72 250.51 118.42"/>
<path stroke-width="2.00" d="M250.51 118.42 Q242.38 113.81 237.59 105.79"/>
<path stroke-width="1.32" d="M237.59 105.79 Q231.38 105.38 225.33 103.89"/>
<path stroke-width="1.32" d="M237.59 105.79 Q238.59 99.27 237.95 92.72"/>
<path stroke-width="2.00" d="M250.51 118.42 Q255.32 112.16 258.58 104.97"/>
<path stroke-width="1.32" d="M258.58 104.97 Q258.78 99.11 255.72 94.11"/>
<path stroke-width="1.32" d="M258.58 104.97 Q262.47 100.24 267.91 97.45"/>
<path stroke-width="4.60" d="M276.87 163.96 Q278.20 149.43 288.79 139.38"/>
<path stroke-width="3.04" d="M288.79 139.38 Q288.25 129.03 287.07 118.73"/>
<path stroke-width="2.00" d="M287.07 118.73 Q284.02 111.69 277.19 108.19"/>
<path stroke-width="1.32" d="M277.19 108.19 Q271.84 107.72 267.39 104.73"/>
<path stroke-width="1.32" d="M277.19 108.19 Q275.26 102.46 277.74 96.94"/>
<path stroke-width="2.00" d="M287.07 118.73 Q290.31 111.35 296.54 106.22"/>
<path stroke-width="1.32" d="M296.54 106.22 Q293.67 100.19 295.68 93.82"/>
<path stroke-width="1.32" d="M296.54 106.22 Q300.82 101.85 306.95 101.62"/>
<path stroke-width="3.04" d="M288.79 139.38 Q296.99 132.99 306.19 128.14"/>
<path stroke-width="2.00" d="M306.19 128.14 Q310.64 122.03 310.92 114.48"/>
<path stroke-width="1.32" d="M310.92 114.48 Q311.18 109.37 309.67 104.48"/>
<path stroke-width="1.32" d="M310.92 114.48 Q313.58 109.50 318.57 106.86"/>
<path stroke-width="2.00" d="M306.19 128.14 Q312.54 123.65 320.31 123.95"/>
<path stroke-width="1.32" d="M320.31 123.95 Q322.72 119.70 326.01 116.07"/>
<path stroke-width="1.32" d="M320.31 123.95 Q326.35 121.97 331.98 124.94"/>
<path stroke-width="6.97" d="M282.44 205.36 Q298.59 194.27 316.26 185.81"/>
<path stroke-width="4.60" d="M316.26 185.81 Q320.72 173.76 322.46 161.03"/>
<path stroke-width="3.04" d="M322.46 161.03 Q322.91 150.71 317.01 142.23"/>
<path stroke-width="2.00" d="M317.01 142.23 Q314.70 135.78 308.95 132.05"/>
<path stroke-width="1.32" d="M308.95 132.05 Q304.57 129.45 299.69 128.03"/>
<path stroke-width="1.32" d="M308.95 132.05 Q307.61 127.51 308.16 122.80"/>
<path stroke-width="2.00" d="M317.01 142.23 Q318.60 135.68 320.25 129.15"/>
<path stroke-width="1.32" d="M320.25 129.15 Q316.94 125.05 315.49 119.99"/>
<path stroke-width="1.32" d="M320.25 129.15 Q323.70 125.62 328.25 123.68"/>
<path stroke-width="3.04" d="M322.46 161.03 Q330.23 154.95 333.86 145.77"/>
<path stroke-width="2.00" d="M333.86 145.77 Q334.49 138.35 336.10 131.09"/>
<path stroke-width="1.32" d="M336.10 131.09 Q333.81 125.62 332.38 119.87"/>
<path stroke-width="1.32" d="M336.10 131.09 Q340.42 127.69 344.32 123.81"/>
<path stroke-width="2.00" d="M333.86 145.77 Q339.72 141.46 346.93 142.47"/>
<path stroke-width="1.32" d="M346.93 142.47 Q347.66 137.80 350.79 134.25"/>
<path stroke-width="1.32" d="M346.93 142.47 Q350.82 144.97 355.43 145.06"/>
<path stroke-width="4.60" d="M316.26 185.81 Q330.99 192.31 345.77 185.91"/>
<path stroke-width="3.04" d="M345.77 185.91 Q357.32 182.23 362.83 171.43"/>
<path stroke-width="2.00" d="M362.83 171.43 Q364.60 163.85 366.15 156.23"/>
<path stroke-width="1.32" d="M366.15 156.23 Q362.44 152.34 361.69 147.01"/>
<path stroke-width="1.32" d="M366.15 156.23 Q370.86 153.91 374.15 149.81"/>
<path stroke-width="2.00" d="M362.83 171.43 Q370.21 167.46 378.59 167.79"/>
<path stroke-width="1.32" d="M378.59 167.79 Q381.64 163.40 385.81 160.07"/>
<path stroke-width="1.32" d="M378.59 167.79 Q383.54 170.81 389.19 172.09"/>
<path stroke-width="3.04" d="M345.77 185.91 Q357.23 186.77 366.40 193.71"/>
<path stroke-width="2.00" d="M366.40 193.71 Q373.58 189.18 380.67 184.49"/>
<path stroke-width="1.32" d="M380.67 184.49 Q381.61 177.75 386.12 172.66"/>
<path stroke-width="1.32" d="M380.67 184.49 Q387.22 185.87 393.67 184.08"/>
<path stroke-width="2.00" d="M366.40 193.71 Q373.25 198.20 378.26 204.68"/>
<path stroke-width="1.32" d="M378.26 204.68 Q384.08 205.11 388.84 201.74"/>
<path stroke-width="1.32" d="M378.26 204.68 Q378.17 211.04 382.44 215.76"/>
</g>
</svg>
