<svg xmlns="http://www.w3.org/2000/svg" viewBox="0 0 512 512" width="512" height="512">
  <rect width="512" height="512" fill="#fdf6ef"/>

    <g fill="#171412">
      <!-- Shaft: tapered from a wider top (fused into the branches) down to the nib shoulder -->
      <path d="M249 300
               Q247 360.0 250 420
               L262 420
               Q265 360.0 263 300
               Z"/>
      <!-- Nib: triangular point -->
      <path d="M250 420 L262 420 L256 462 Z"/>
      <!-- Ink slit carved out of the nib -->
      <rect x="254.5" y="424" width="3" height="30" fill="#fdf6ef"/>
    </g>
    
<g fill="none" stroke="#171412" stroke-linecap="round" stroke-linejoin="round">
<path stroke-width="14.00" d="M256.00 300.00 Q264.42 265.00 256.00 230.00"/>
<path stroke-width="9.24" d="M256.00 230.00 Q255.00 201.96 236.18 181.15"/>
<path stroke-width="6.10" d="M236.18 181.15 Q219.54 174.26 205.11 163.49"/>
<path stroke-width="4.02" d="M205.11 163.49 Q192.42 162.05 179.72 160.72"/>
<path stroke-width="2.66" d="M179.72 160.72 Q169.39 158.88 160.27 164.05"/>
<path stroke-width="1.75" d="M160.27 164.05 Q153.93 165.62 148.72 169.56"/>
<path stroke-width="1.16" d="M148.72 169.56 Q144.73 172.64 141.47 176.50"/>
<path stroke-width="1.16" d="M148.72 169.56 Q144.27 168.62 140.25 166.49"/>
<path stroke-width="1.75" d="M160.27 164.05 Q154.87 158.72 147.38 157.44"/>
<path stroke-width="1.16" d="M147.38 157.44 Q141.75 156.43 136.10 155.53"/>
<path stroke-width="1.16" d="M147.38 157.44 Q145.50 152.77 142.52 148.71"/>
<path stroke-width="2.66" d="M179.72 160.72 Q170.21 156.66 166.05 147.20"/>
<path stroke-width="1.75" d="M166.05 147.20 Q159.52 144.19 152.36 144.82"/>
<path stroke-width="1.16" d="M152.36 144.82 Q147.36 145.51 142.35 146.11"/>
<path stroke-width="1.16" d="M152.36 144.82 Q151.69 139.70 147.51 136.66"/>
<path stroke-width="1.75" d="M166.05 147.20 Q166.37 139.39 162.52 132.59"/>
<path stroke-width="1.16" d="M162.52 132.59 Q158.51 129.45 155.54 125.31"/>
<path stroke-width="1.16" d="M162.52 132.59 Q166.25 128.16 168.62 122.89"/>
<path stroke-width="4.02" d="M205.11 163.49 Q199.74 151.96 196.23 139.74"/>
<path stroke-width="2.66" d="M196.23 139.74 Q192.32 131.73 184.17 128.12"/>
<path stroke-width="1.75" d="M184.17 128.12 Q178.95 124.93 173.11 123.10"/>
<path stroke-width="1.16" d="M173.11 123.10 Q168.88 124.52 164.42 124.34"/>
<path stroke-width="1.16" d="M173.11 123.10 Q170.60 119.30 169.87 114.81"/>
<path stroke-width="1.75" d="M184.17 128.12 Q186.70 121.53 183.86 115.08"/>
<path stroke-width="1.16" d="M183.86 115.08 Q178.84 113.06 176.86 108.03"/>
<path stroke-width="1.16" d="M183.86 115.08 Q187.06 111.48 190.24 107.86"/>
<path stroke-width="2.66" d="M196.23 139.74 Q198.88 131.72 200.67 123.47"/>
<path stroke-width="1.75" d="M200.67 123.47 Q198.18 117.61 195.40 111.88"/>
<path stroke-width="1.16" d="M195.40 111.88 Q192.47 108.35 188.25 106.55"/>
<path stroke-width="1.16" d="M195.40 111.88 Q198.03 107.51 196.76 102.57"/>
<path stroke-width="1.75" d="M200.67 123.47 Q203.87 118.17 208.72 114.32"/>
<path stroke-width="1.16" d="M208.72 114.32 Q209.24 110.21 209.95 106.12"/>
<path stroke-width="1.16" d="M208.72 114.32 Q211.98 110.62 216.88 109.98"/>
<path stroke-width="6.10" d="M236.18 181.15 Q220.86 168.52 218.08 148.86"/>
<path stroke-width="4.02" d="M218.08 148.86 Q205.34 144.42 193.88 137.31"/>
<path stroke-width="2.66" d="M193.88 137.31 Q183.46 137.01 173.59 140.35"/>
<path stroke-width="1.75" d="M173.59 140.35 Q167.58 143.89 162.52 148.70"/>
<path stroke-width="1.16" d="M162.52 148.70 Q159.47 153.20 158.03 158.45"/>
<path stroke-width="1.16" d="M162.52 148.70 Q157.20 149.88 152.05 148.10"/>
<path stroke-width="1.75" d="M173.59 140.35 Q168.11 134.39 160.74 131.04"/>
<path stroke-width="1.16" d="M160.74 131.04 Q155.36 128.10 149.26 127.48"/>
<path stroke-width="1.16" d="M160.74 131.04 Q159.73 125.03 158.77 119.01"/>
<path stroke-width="2.66" d="M193.88 137.31 Q186.28 130.04 182.39 120.28"/>
<path stroke-width="1.75" d="M182.39 120.28 Q175.33 116.65 168.99 111.89"/>
<path stroke-width="1.16" d="M168.99 111.89 Q163.49 113.44 157.89 112.25"/>
<path stroke-width="1.16" d="M168.99 111.89 Q164.76 107.07 163.32 100.83"/>
<path stroke-width="1.75" d="M182.39 120.28 Q180.11 112.10 183.52 104.33"/>
<path stroke-width="1.16" d="M183.52 104.33 Q179.80 100.56 176.84 96.16"/>
<path stroke-width="1.16" d="M183.52 104.33 Q185.79 98.49 189.53 93.47"/>
<path stroke-width="4.02" d="M218.08 148.86 Q221.20 136.18 219.73 123.20"/>
<path stroke-width="2.66" d="M219.73 123.20 Q215.64 115.25 211.84 107.15"/>
<path stroke-width="1.75" d="M211.84 107.15 Q207.40 101.98 201.76 98.16"/>
<path stroke-width="1.16" d="M201.76 98.16 Q197.58 96.11 193.09 94.92"/>
<path stroke-width="1.16" d="M201.76 98.16 Q200.43 93.69 201.10 89.09"/>
<path stroke-width="1.75" d="M211.84 107.15 Q213.23 100.69 212.63 94.10"/>
<path stroke-width="1.16" d="M212.63 94.10 Q209.59 90.19 206.41 86.39"/>
<path stroke-width="1.16" d="M212.63 94.10 Q216.09 91.13 219.03 87.63"/>
<path stroke-width="2.66" d="M219.73 123.20 Q225.61 115.71 230.31 107.41"/>
<path stroke-width="1.75" d="M230.31 107.41 Q226.43 101.13 227.30 93.79"/>
<path stroke-width="1.16" d="M227.30 93.79 Q221.76 92.49 218.86 87.59"/>
<path stroke-width="1.16" d="M227.30 93.79 Q229.78 89.19 232.06 84.48"/>
<path stroke-width="1.75" d="M230.31 107.41 Q237.59 105.16 243.57 100.44"/>
<path stroke-width="1.16" d="M243.57 100.44 Q244.86 95.01 248.44 90.71"/>
<path stroke-width="1.16" d="M243.57 100.44 Q249.08 99.18 253.98 101.99"/>
<path stroke-width="6.10" d="M236.18 181.15 Q243.16 164.56 240.60 146.74"/>
<path stroke-width="4.02" d="M240.60 146.74 Q231.20 138.55 230.23 126.11"/>
<path stroke-width="2.66" d="M230.23 126.11 Q221.23 123.96 216.32 116.12"/>
<path stroke-width="1.75" d="M216.32 116.12 Q210.60 111.47 203.26 112.11"/>
<path stroke-width="1.16" d="M203.26 112.11 Q198.64 115.16 193.24 113.93"/>
<path stroke-width="1.16" d="M203.26 112.11 Q201.93 107.61 199.58 103.55"/>
<path stroke-width="1.75" d="M216.32 116.12 Q216.35 110.27 213.01 105.46"/>
<path stroke-width="1.16" d="M213.01 105.46 Q209.93 102.29 205.99 100.28"/>
<path stroke-width="1.16" d="M213.01 105.46 Q213.70 101.63 215.35 98.10"/>
<path stroke-width="2.66" d="M230.23 126.11 Q233.96 117.83 234.48 108.76"/>
<path stroke-width="1.75" d="M234.48 108.76 Q230.80 103.50 228.40 97.55"/>
<path stroke-width="1.16" d="M228.40 97.55 Q224.66 94.54 220.24 92.67"/>
<path stroke-width="1.16" d="M228.40 97.55 Q229.64 93.12 229.97 88.54"/>
<path stroke-width="1.75" d="M234.48 108.76 Q236.98 103.21 241.84 99.56"/>
<path stroke-width="1.16" d="M241.84 99.56 Q240.99 95.63 241.10 91.60"/>
<path stroke-width="1.16" d="M241.84 99.56 Q246.43 99.71 250.54 97.66"/>
<path stroke-width="4.02" d="M240.60 146.74 Q252.72 139.64 255.90 125.97"/>
<path stroke-width="2.66" d="M255.90 125.97 Q252.05 117.39 253.78 108.15"/>
<path stroke-width="1.75" d="M253.78 108.15 Q251.96 100.67 245.22 96.96"/>
<path stroke-width="1.16" d="M245.22 96.96 Q240.68 95.95 236.16 94.85"/>
<path stroke-width="1.16" d="M245.22 96.96 Q246.13 91.80 243.96 87.03"/>
<path stroke-width="1.75" d="M253.78 108.15 Q256.33 101.98 260.47 96.74"/>
<path stroke-width="1.16" d="M260.47 96.74 Q261.59 91.72 260.09 86.81"/>
<path stroke-width="1.16" d="M260.47 96.74 Q264.43 94.14 269.03 93.01"/>
<path stroke-width="2.66" d="M255.90 125.97 Q264.45 121.10 274.15 119.46"/>
<path stroke-width="1.75" d="M274.15 119.46 Q277.60 112.79 282.72 107.28"/>
<path stroke-width="1.16" d="M282.72 107.28 Q281.69 101.68 280.61 96.09"/>
<path stroke-width="1.16" d="M282.72 107.28 Q287.04 103.58 292.72 103.27"/>
<path stroke-width="1.75" d="M274.15 119.46 Q281.30 120.00 288.47 120.14"/>
<path stroke-width="1.16" d="M288.47 120.14 Q292.55 116.42 297.28 113.56"/>
<path stroke-width="1.16" d="M288.47 120.14 Q293.23 121.35 297.35 124.02"/>
<path stroke-width="9.24" d="M256.00 230.00 Q268.86 209.80 284.86 191.97"/>
<path stroke-width="6.10" d="M284.86 191.97 Q278.96 175.68 280.98 158.46"/>
<path stroke-width="4.02" d="M280.98 158.46 Q271.89 149.95 269.29 137.76"/>
<path stroke-width="2.66" d="M269.29 137.76 Q261.48 134.38 254.36 129.71"/>
<path stroke-width="1.75" d="M254.36 129.71 Q248.07 131.49 241.99 129.10"/>
<path stroke-width="1.16" d="M241.99 129.10 Q238.87 132.04 234.79 133.36"/>
<path stroke-width="1.16" d="M241.99 129.10 Q238.60 126.04 235.87 122.39"/>
<path stroke-width="1.75" d="M254.36 129.71 Q255.02 123.02 251.13 117.53"/>
<path stroke-width="1.16" d="M251.13 117.53 Q248.59 113.82 245.00 111.12"/>
<path stroke-width="1.16" d="M251.13 117.53 Q250.82 112.17 254.27 108.05"/>
<path stroke-width="2.66" d="M269.29 137.76 Q268.68 128.77 271.03 120.08"/>
<path stroke-width="1.75" d="M271.03 120.08 Q268.44 114.17 264.88 108.79"/>
<path stroke-width="1.16" d="M264.88 108.79 Q260.31 107.40 257.04 103.92"/>
<path stroke-width="1.16" d="M264.88 108.79 Q264.26 103.67 265.73 98.74"/>
<path stroke-width="1.75" d="M271.03 120.08 Q274.12 114.77 279.40 111.61"/>
<path stroke-width="1.16" d="M279.40 111.61 Q279.08 107.45 278.97 103.28"/>
<path stroke-width="1.16" d="M279.40 111.61 Q283.45 109.53 287.96 108.87"/>
<path stroke-width="4.02" d="M280.98 158.46 Q287.89 147.79 290.58 135.36"/>
<path stroke-width="2.66" d="M290.58 135.36 Q292.45 126.85 288.87 118.90"/>
<path stroke-width="1.75" d="M288.87 118.90 Q285.42 114.03 282.57 108.79"/>
<path stroke-width="1.16" d="M282.57 108.79 Q278.28 108.00 274.80 105.39"/>
<path stroke-width="1.16" d="M282.57 108.79 Q283.13 104.44 283.26 100.06"/>
<path stroke-width="1.75" d="M288.87 118.90 Q293.61 114.57 294.61 108.23"/>
<path stroke-width="1.16" d="M294.61 108.23 Q294.74 104.08 292.39 100.66"/>
<path stroke-width="1.16" d="M294.61 108.23 Q298.56 105.80 302.38 103.17"/>
<path stroke-width="2.66" d="M290.58 135.36 Q299.12 132.23 305.84 126.10"/>
<path stroke-width="1.75" d="M305.84 126.10 Q305.47 119.00 309.80 113.36"/>
<path stroke-width="1.16" d="M309.80 113.36 Q311.00 107.72 307.67 103.01"/>
<path stroke-width="1.16" d="M309.80 113.36 Q312.48 109.00 317.18 106.97"/>
<path stroke-width="1.75" d="M305.84 126.10 Q312.98 126.95 319.71 124.40"/>
<path stroke-width="1.16" d="M319.71 124.40 Q323.42 121.18 324.65 116.44"/>
<path stroke-width="1.16" d="M319.71 124.40 Q323.90 126.30 328.27 127.76"/>
<path stroke-width="6.10" d="M284.86 191.97 Q299.13 179.79 314.95 169.70"/>
<path stroke-width="4.02" d="M314.95 169.70 Q319.14 156.59 325.99 144.66"/>
<path stroke-width="2.66" d="M325.99 144.66 Q321.69 135.72 321.12 125.83"/>
<path stroke-width="1.75" d="M321.12 125.83 Q316.68 119.30 308.95 117.68"/>
<path stroke-width="1.16" d="M308.95 117.68 Q303.53 117.54 298.13 116.96"/>
<path stroke-width="1.16" d="M308.95 117.68 Q306.99 113.01 307.73 108.00"/>
<path stroke-width="1.75" d="M321.12 125.83 Q321.19 118.88 326.19 114.07"/>
<path stroke-width="1.16" d="M326.19 114.07 Q324.34 109.39 322.56 104.68"/>
<path stroke-width="1.16" d="M326.19 114.07 Q330.87 113.23 334.24 109.89"/>
<path stroke-width="2.66" d="M325.99 144.66 Q336.18 140.85 342.65 132.12"/>
<path stroke-width="1.75" d="M342.65 132.12 Q342.15 123.58 345.81 115.86"/>
<path stroke-width="1.16" d="M345.81 115.86 Q343.21 110.20 338.87 105.73"/>
<path stroke-width="1.16" d="M345.81 115.86 Q350.85 111.82 354.18 106.28"/>
<path stroke-width="1.75" d="M342.65 132.12 Q349.85 128.43 357.93 128.25"/>
<path stroke-width="1.16" d="M357.93 128.25 Q360.62 123.43 364.93 119.99"/>
<path stroke-width="1.16" d="M357.93 128.25 Q363.17 128.70 368.42 128.75"/>
<path stroke-width="4.02" d="M314.95 169.70 Q327.24 162.60 341.42 163.07"/>
<path stroke-width="2.66" d="M341.42 163.07 Q345.38 152.72 353.45 145.13"/>
<path stroke-width="1.75" d="M353.45 145.13 Q351.84 137.43 355.23 130.33"/>
<path stroke-width="1.16" d="M355.23 130.33 Q353.25 125.92 351.91 121.26"/>
<path stroke-width="1.16" d="M355.23 130.33 Q357.06 124.97 361.59 121.57"/>
<path stroke-width="1.75" d="M353.45 145.13 Q359.23 139.56 367.24 139.09"/>
<path stroke-width="1.16" d="M367.24 139.09 Q369.64 134.36 372.55 129.94"/>
<path stroke-width="1.16" d="M367.24 139.09 Q372.65 136.96 378.28 138.40"/>
<path stroke-width="2.66" d="M341.42 163.07 Q351.81 165.46 362.20 167.80"/>
<path stroke-width="1.75" d="M362.20 167.80 Q367.49 161.05 375.97 159.80"/>
<path stroke-width="1.16" d="M375.97 159.80 Q376.35 153.63 378.47 147.83"/>
<path stroke-width="1.16" d="M375.97 159.80 Q381.52 159.95 387.07 160.11"/>
<path stroke-width="1.75" d="M362.20 167.80 Q368.41 171.09 373.77 175.63"/>
<path stroke-width="1.16" d="M373.77 175.63 Q379.09 174.18 383.91 171.48"/>
<path stroke-width="1.16" d="M373.77 175.63 Q375.71 180.51 378.62 184.87"/>
</g>
</svg>
