<svg xmlns="http://www.w3.org/2000/svg" viewBox="0 0 512 512" width="512" height="512">
  <rect width="512" height="512" fill="#fdf6ef"/>
<g fill="none" stroke="#171412" stroke-linecap="round" stroke-linejoin="round">
<path stroke-width="4.00" d="M256.00 430.00 Q272.22 375.00 256.00 320.00"/>
<path stroke-width="3.60" d="M256.00 320.00 Q241.51 280.77 210.27 252.96"/>
<path stroke-width="3.24" d="M210.27 252.96 Q182.09 242.25 154.01 231.30"/>
<path stroke-width="2.92" d="M154.01 231.30 Q134.07 228.52 114.02 230.28"/>
<path stroke-width="2.62" d="M114.02 230.28 Q103.11 238.92 89.37 241.20"/>
<path stroke-width="2.36" d="M89.37 241.20 Q79.70 244.31 74.89 253.26"/>
<path stroke-width="2.13" d="M74.89 253.26 Q74.73 260.99 70.00 267.09"/>
<path stroke-width="2.13" d="M74.89 253.26 Q67.99 249.85 60.49 248.11"/>
<path stroke-width="2.36" d="M89.37 241.20 Q80.90 235.54 71.20 232.39"/>
<path stroke-width="2.13" d="M71.20 232.39 Q64.11 229.81 57.24 232.91"/>
<path stroke-width="2.13" d="M71.20 232.39 Q65.57 226.29 63.08 218.37"/>
<path stroke-width="2.62" d="M114.02 230.28 Q106.21 215.88 92.32 207.19"/>
<path stroke-width="2.36" d="M92.32 207.19 Q79.90 204.39 67.19 203.60"/>
<path stroke-width="2.13" d="M67.19 203.60 Q57.96 205.15 49.22 208.51"/>
<path stroke-width="2.13" d="M67.19 203.60 Q60.47 195.68 53.69 187.81"/>
<path stroke-width="2.36" d="M92.32 207.19 Q89.98 195.47 90.19 183.53"/>
<path stroke-width="2.13" d="M90.19 183.53 Q86.52 176.12 81.03 169.94"/>
<path stroke-width="2.13" d="M90.19 183.53 Q93.59 175.96 100.39 171.22"/>
<path stroke-width="2.92" d="M154.01 231.30 Q141.39 210.21 125.50 191.46"/>
<path stroke-width="2.62" d="M125.50 191.46 Q105.82 188.05 86.93 181.56"/>
<path stroke-width="2.36" d="M86.93 181.56 Q72.51 184.97 59.17 191.42"/>
<path stroke-width="2.13" d="M59.17 191.42 Q47.68 195.76 40.42 205.67"/>
<path stroke-width="2.13" d="M59.17 191.42 Q50.86 185.67 40.93 183.81"/>
<path stroke-width="2.36" d="M86.93 181.56 Q73.39 170.66 71.87 153.34"/>
<path stroke-width="2.13" d="M71.87 153.34 Q62.16 146.16 50.34 143.67"/>
<path stroke-width="2.13" d="M71.87 153.34 Q72.48 140.24 79.39 129.09"/>
<path stroke-width="2.62" d="M125.50 191.46 Q123.67 174.13 122.89 156.73"/>
<path stroke-width="2.36" d="M122.89 156.73 Q120.07 142.15 107.53 134.19"/>
<path stroke-width="2.13" d="M107.53 134.19 Q98.72 126.05 86.73 126.63"/>
<path stroke-width="2.13" d="M107.53 134.19 Q105.47 123.72 111.26 114.75"/>
<path stroke-width="2.36" d="M122.89 156.73 Q134.32 149.76 139.67 137.50"/>
<path stroke-width="2.13" d="M139.67 137.50 Q141.60 127.40 137.16 118.13"/>
<path stroke-width="2.13" d="M139.67 137.50 Q148.52 136.76 157.01 134.16"/>
<path stroke-width="3.24" d="M210.27 252.96 Q199.14 222.08 204.20 189.64"/>
<path stroke-width="2.92" d="M204.20 189.64 Q201.16 164.78 182.25 148.34"/>
<path stroke-width="2.62" d="M182.25 148.34 Q166.40 144.04 153.16 134.33"/>
<path stroke-width="2.36" d="M153.16 134.33 Q140.84 131.55 128.29 132.85"/>
<path stroke-width="2.13" d="M128.29 132.85 Q119.16 133.36 110.70 136.83"/>
<path stroke-width="2.13" d="M128.29 132.85 Q121.38 127.92 115.45 121.85"/>
<path stroke-width="2.36" d="M153.16 134.33 Q147.39 123.76 142.78 112.63"/>
<path stroke-width="2.13" d="M142.78 112.63 Q132.96 109.49 128.32 100.29"/>
<path stroke-width="2.13" d="M142.78 112.63 Q143.77 104.27 148.92 97.61"/>
<path stroke-width="2.62" d="M182.25 148.34 Q183.96 131.30 186.19 114.33"/>
<path stroke-width="2.36" d="M186.19 114.33 Q183.22 101.90 174.90 92.19"/>
<path stroke-width="2.13" d="M174.90 92.19 Q169.18 84.86 160.89 80.64"/>
<path stroke-width="2.13" d="M174.90 92.19 Q177.73 83.67 180.36 75.07"/>
<path stroke-width="2.36" d="M186.19 114.33 Q191.47 101.33 203.63 94.33"/>
<path stroke-width="2.13" d="M203.63 94.33 Q200.36 84.51 201.65 74.24"/>
<path stroke-width="2.13" d="M203.63 94.33 Q214.30 93.05 224.50 89.68"/>
<path stroke-width="2.92" d="M204.20 189.64 Q221.27 174.32 232.49 154.30"/>
<path stroke-width="2.62" d="M232.49 154.30 Q232.32 138.76 233.60 123.28"/>
<path stroke-width="2.36" d="M233.60 123.28 Q225.10 115.05 224.42 103.24"/>
<path stroke-width="2.13" d="M224.42 103.24 Q218.50 97.03 210.02 95.80"/>
<path stroke-width="2.13" d="M224.42 103.24 Q227.85 95.28 227.78 86.61"/>
<path stroke-width="2.36" d="M233.60 123.28 Q244.17 116.89 250.22 106.12"/>
<path stroke-width="2.13" d="M250.22 106.12 Q251.22 97.70 250.44 89.26"/>
<path stroke-width="2.13" d="M250.22 106.12 Q258.47 105.42 266.41 103.07"/>
<path stroke-width="2.62" d="M232.49 154.30 Q247.07 142.75 264.77 137.02"/>
<path stroke-width="2.36" d="M264.77 137.02 Q276.20 127.86 278.02 113.34"/>
<path stroke-width="2.13" d="M278.02 113.34 Q278.09 102.59 273.48 92.87"/>
<path stroke-width="2.13" d="M278.02 113.34 Q288.27 109.44 297.37 103.34"/>
<path stroke-width="2.36" d="M264.77 137.02 Q277.13 140.04 289.82 140.91"/>
<path stroke-width="2.13" d="M289.82 140.91 Q295.07 133.41 303.35 129.51"/>
<path stroke-width="2.13" d="M289.82 140.91 Q298.70 142.79 304.45 149.81"/>
<path stroke-width="3.60" d="M256.00 320.00 Q269.62 280.37 291.23 244.48"/>
<path stroke-width="3.24" d="M291.23 244.48 Q288.51 214.17 274.20 187.31"/>
<path stroke-width="2.92" d="M274.20 187.31 Q257.59 173.99 244.34 157.33"/>
<path stroke-width="2.62" d="M244.34 157.33 Q231.00 149.92 216.10 153.24"/>
<path stroke-width="2.36" d="M216.10 153.24 Q204.75 153.65 195.17 159.77"/>
<path stroke-width="2.13" d="M195.17 159.77 Q187.43 161.63 183.20 168.37"/>
<path stroke-width="2.13" d="M195.17 159.77 Q188.16 154.33 181.54 148.43"/>
<path stroke-width="2.36" d="M216.10 153.24 Q213.29 141.94 205.45 133.32"/>
<path stroke-width="2.13" d="M205.45 133.32 Q198.97 128.43 192.79 123.18"/>
<path stroke-width="2.13" d="M205.45 133.32 Q205.96 124.02 211.07 116.24"/>
<path stroke-width="2.62" d="M244.34 157.33 Q235.11 143.32 236.91 126.64"/>
<path stroke-width="2.36" d="M236.91 126.64 Q224.92 124.09 217.79 114.11"/>
<path stroke-width="2.13" d="M217.79 114.11 Q208.50 111.04 199.88 115.68"/>
<path stroke-width="2.13" d="M217.79 114.11 Q212.64 107.46 213.20 99.07"/>
<path stroke-width="2.36" d="M236.91 126.64 Q239.13 114.18 246.20 103.69"/>
<path stroke-width="2.13" d="M246.20 103.69 Q245.47 94.23 238.80 87.48"/>
<path stroke-width="2.13" d="M246.20 103.69 Q255.24 102.23 260.58 94.78"/>
<path stroke-width="2.92" d="M274.20 187.31 Q275.73 165.71 291.13 150.47"/>
<path stroke-width="2.62" d="M291.13 150.47 Q287.28 134.66 283.82 118.76"/>
<path stroke-width="2.36" d="M283.82 118.76 Q277.28 109.40 269.55 100.99"/>
<path stroke-width="2.13" d="M269.55 100.99 Q260.44 100.27 252.48 95.78"/>
<path stroke-width="2.13" d="M269.55 100.99 Q269.58 92.96 270.15 84.94"/>
<path stroke-width="2.36" d="M283.82 118.76 Q285.16 105.92 291.41 94.62"/>
<path stroke-width="2.13" d="M291.41 94.62 Q287.46 86.33 282.05 78.93"/>
<path stroke-width="2.13" d="M291.41 94.62 Q298.77 89.39 302.96 81.38"/>
<path stroke-width="2.62" d="M291.13 150.47 Q304.83 142.11 318.53 133.75"/>
<path stroke-width="2.36" d="M318.53 133.75 Q320.72 122.26 325.42 111.55"/>
<path stroke-width="2.13" d="M325.42 111.55 Q319.28 104.42 318.46 95.04"/>
<path stroke-width="2.13" d="M325.42 111.55 Q333.83 106.70 338.73 98.32"/>
<path stroke-width="2.36" d="M318.53 133.75 Q329.14 129.39 340.42 131.42"/>
<path stroke-width="2.13" d="M340.42 131.42 Q347.29 126.22 351.91 118.96"/>
<path stroke-width="2.13" d="M340.42 131.42 Q347.53 136.20 355.70 138.77"/>
<path stroke-width="3.24" d="M291.23 244.48 Q321.11 232.34 348.81 215.83"/>
<path stroke-width="2.92" d="M348.81 215.83 Q358.80 191.86 374.83 171.43"/>
<path stroke-width="2.62" d="M374.83 171.43 Q374.01 151.40 376.50 131.52"/>
<path stroke-width="2.36" d="M376.50 131.52 Q363.58 122.12 360.88 106.37"/>
<path stroke-width="2.13" d="M360.88 106.37 Q350.33 102.16 341.07 95.59"/>
<path stroke-width="2.13" d="M360.88 106.37 Q365.23 95.92 364.28 84.64"/>
<path stroke-width="2.36" d="M376.50 131.52 Q385.97 119.74 397.05 109.47"/>
<path stroke-width="2.13" d="M397.05 109.47 Q402.27 99.09 401.04 87.54"/>
<path stroke-width="2.13" d="M397.05 109.47 Q407.78 111.40 417.76 106.98"/>
<path stroke-width="2.62" d="M374.83 171.43 Q390.77 163.99 405.26 154.03"/>
<path stroke-width="2.36" d="M405.26 154.03 Q405.81 141.68 410.54 130.25"/>
<path stroke-width="2.13" d="M410.54 130.25 Q408.63 122.03 403.37 115.43"/>
<path stroke-width="2.13" d="M410.54 130.25 Q415.42 122.51 422.30 116.47"/>
<path stroke-width="2.36" d="M405.26 154.03 Q418.92 159.92 432.79 154.53"/>
<path stroke-width="2.13" d="M432.79 154.53 Q438.59 144.78 448.17 138.69"/>
<path stroke-width="2.13" d="M432.79 154.53 Q443.73 155.61 453.48 160.69"/>
<path stroke-width="2.92" d="M348.81 215.83 Q371.59 208.06 395.23 212.60"/>
<path stroke-width="2.62" d="M395.23 212.60 Q411.74 206.75 420.72 191.73"/>
<path stroke-width="2.36" d="M420.72 191.73 Q420.85 178.45 426.60 166.49"/>
<path stroke-width="2.13" d="M426.60 166.49 Q426.87 156.75 421.14 148.89"/>
<path stroke-width="2.13" d="M426.60 166.49 Q431.46 158.23 438.75 152.01"/>
<path stroke-width="2.36" d="M420.72 191.73 Q433.03 192.96 445.04 190.00"/>
<path stroke-width="2.13" d="M445.04 190.00 Q448.57 181.75 456.58 177.69"/>
<path stroke-width="2.13" d="M445.04 190.00 Q453.82 190.88 461.97 194.24"/>
<path stroke-width="2.62" d="M395.23 212.60 Q410.01 221.22 426.93 223.71"/>
<path stroke-width="2.36" d="M426.93 223.71 Q437.20 214.95 449.78 210.05"/>
<path stroke-width="2.13" d="M449.78 210.05 Q449.33 200.01 455.16 191.81"/>
<path stroke-width="2.13" d="M449.78 210.05 Q460.21 205.41 471.33 207.95"/>
<path stroke-width="2.36" d="M426.93 223.71 Q436.24 230.66 446.66 235.79"/>
<path stroke-width="2.13" d="M446.66 235.79 Q454.86 234.33 461.83 229.76"/>
<path stroke-width="2.13" d="M446.66 235.79 Q455.07 240.53 459.73 248.98"/>
</g>
<circle cx="256.00" cy="430.00" r="6" fill="#171412"/>
<circle cx="256.00" cy="320.00" r="6" fill="#171412"/>
<circle cx="210.30" cy="253.00" r="6" fill="#171412"/>
<circle cx="154.00" cy="231.30" r="6" fill="#171412"/>
<circle cx="114.00" cy="230.30" r="6" fill="#171412"/>
<circle cx="89.40" cy="241.20" r="6" fill="#171412"/>
<circle cx="74.90" cy="253.30" r="6" fill="#171412"/>
<circle cx="70.00" cy="267.10" r="6" fill="#171412"/>
<circle cx="60.50" cy="248.10" r="6" fill="#171412"/>
<circle cx="71.20" cy="232.40" r="6" fill="#171412"/>
<circle cx="57.20" cy="232.90" r="6" fill="#171412"/>
<circle cx="63.10" cy="218.40" r="6" fill="#171412"/>
<circle cx="92.30" cy="207.20" r="6" fill="#171412"/>
<circle cx="67.20" cy="203.60" r="6" fill="#171412"/>
<circle cx="49.20" cy="208.50" r="6" fill="#171412"/>
<circle cx="53.70" cy="187.80" r="6" fill="#171412"/>
<circle cx="90.20" cy="183.50" r="6" fill="#171412"/>
<circle cx="81.00" cy="169.90" r="6" fill="#171412"/>
<circle cx="100.40" cy="171.20" r="6" fill="#171412"/>
<circle cx="125.50" cy="191.50" r="6" fill="#171412"/>
<circle cx="86.90" cy="181.60" r="6" fill="#171412"/>
<circle cx="59.20" cy="191.40" r="6" fill="#171412"/>
<circle cx="40.40" cy="205.70" r="6" fill="#171412"/>
<circle cx="40.90" cy="183.80" r="6" fill="#171412"/>
<circle cx="71.90" cy="153.30" r="6" fill="#171412"/>
<circle cx="50.30" cy="143.70" r="6" fill="#171412"/>
<circle cx="79.40" cy="129.10" r="6" fill="#171412"/>
<circle cx="122.90" cy="156.70" r="6" fill="#171412"/>
<circle cx="107.50" cy="134.20" r="6" fill="#171412"/>
<circle cx="86.70" cy="126.60" r="6" fill="#171412"/>
<circle cx="111.30" cy="114.80" r="6" fill="#171412"/>
<circle cx="139.70" cy="137.50" r="6" fill="#171412"/>
<circle cx="137.20" cy="118.10" r="6" fill="#171412"/>
<circle cx="157.00" cy="134.20" r="6" fill="#171412"/>
<circle cx="204.20" cy="189.60" r="6" fill="#171412"/>
<circle cx="182.20" cy="148.30" r="6" fill="#171412"/>
<circle cx="153.20" cy="134.30" r="6" fill="#171412"/>
<circle cx="128.30" cy="132.80" r="6" fill="#171412"/>
<circle cx="110.70" cy="136.80" r="6" fill="#171412"/>
<circle cx="115.50" cy="121.80" r="6" fill="#171412"/>
<circle cx="142.80" cy="112.60" r="6" fill="#171412"/>
<circle cx="128.30" cy="100.30" r="6" fill="#171412"/>
<circle cx="148.90" cy="97.60" r="6" fill="#171412"/>
<circle cx="186.20" cy="114.30" r="6" fill="#171412"/>
<circle cx="174.90" cy="92.20" r="6" fill="#171412"/>
<circle cx="160.90" cy="80.60" r="6" fill="#171412"/>
<circle cx="180.40" cy="75.10" r="6" fill="#171412"/>
<circle cx="203.60" cy="94.30" r="6" fill="#171412"/>
<circle cx="201.70" cy="74.20" r="6" fill="#171412"/>
<circle cx="224.50" cy="89.70" r="6" fill="#171412"/>
<circle cx="232.50" cy="154.30" r="6" fill="#171412"/>
<circle cx="233.60" cy="123.30" r="6" fill="#171412"/>
<circle cx="224.40" cy="103.20" r="6" fill="#171412"/>
<circle cx="210.00" cy="95.80" r="6" fill="#171412"/>
<circle cx="227.80" cy="86.60" r="6" fill="#171412"/>
<circle cx="250.20" cy="106.10" r="6" fill="#171412"/>
<circle cx="250.40" cy="89.30" r="6" fill="#171412"/>
<circle cx="266.40" cy="103.10" r="6" fill="#171412"/>
<circle cx="264.80" cy="137.00" r="6" fill="#171412"/>
<circle cx="278.00" cy="113.30" r="6" fill="#171412"/>
<circle cx="273.50" cy="92.90" r="6" fill="#171412"/>
<circle cx="297.40" cy="103.30" r="6" fill="#171412"/>
<circle cx="289.80" cy="140.90" r="6" fill="#171412"/>
<circle cx="303.40" cy="129.50" r="6" fill="#171412"/>
<circle cx="304.40" cy="149.80" r="6" fill="#171412"/>
<circle cx="291.20" cy="244.50" r="6" fill="#171412"/>
<circle cx="274.20" cy="187.30" r="6" fill="#171412"/>
<circle cx="244.30" cy="157.30" r="6" fill="#171412"/>
<circle cx="216.10" cy="153.20" r="6" fill="#171412"/>
<circle cx="195.20" cy="159.80" r="6" fill="#171412"/>
<circle cx="183.20" cy="168.40" r="6" fill="#171412"/>
<circle cx="181.50" cy="148.40" r="6" fill="#171412"/>
<circle cx="205.40" cy="133.30" r="6" fill="#171412"/>
<circle cx="192.80" cy="123.20" r="6" fill="#171412"/>
<circle cx="211.10" cy="116.20" r="6" fill="#171412"/>
<circle cx="236.90" cy="126.60" r="6" fill="#171412"/>
<circle cx="217.80" cy="114.10" r="6" fill="#171412"/>
<circle cx="199.90" cy="115.70" r="6" fill="#171412"/>
<circle cx="213.20" cy="99.10" r="6" fill="#171412"/>
<circle cx="246.20" cy="103.70" r="6" fill="#171412"/>
<circle cx="238.80" cy="87.50" r="6" fill="#171412"/>
<circle cx="260.60" cy="94.80" r="6" fill="#171412"/>
<circle cx="291.10" cy="150.50" r="6" fill="#171412"/>
<circle cx="283.80" cy="118.80" r="6" fill="#171412"/>
<circle cx="269.60" cy="101.00" r="6" fill="#171412"/>
<circle cx="252.50" cy="95.80" r="6" fill="#171412"/>
<circle cx="270.10" cy="84.90" r="6" fill="#171412"/>
<circle cx="291.40" cy="94.60" r="6" fill="#171412"/>
<circle cx="282.10" cy="78.90" r="6" fill="#171412"/>
<circle cx="303.00" cy="81.40" r="6" fill="#171412"/>
<circle cx="318.50" cy="133.80" r="6" fill="#171412"/>
<circle cx="325.40" cy="111.50" r="6" fill="#171412"/>
<circle cx="318.50" cy="95.00" r="6" fill="#171412"/>
<circle cx="338.70" cy="98.30" r="6" fill="#171412"/>
<circle cx="340.40" cy="131.40" r="6" fill="#171412"/>
<circle cx="351.90" cy="119.00" r="6" fill="#171412"/>
<circle cx="355.70" cy="138.80" r="6" fill="#171412"/>
<circle cx="348.80" cy="215.80" r="6" fill="#171412"/>
<circle cx="374.80" cy="171.40" r="6" fill="#171412"/>
<circle cx="376.50" cy="131.50" r="6" fill="#171412"/>
<circle cx="360.90" cy="106.40" r="6" fill="#171412"/>
<circle cx="341.10" cy="95.60" r="6" fill="#171412"/>
<circle cx="364.30" cy="84.60" r="6" fill="#171412"/>
<circle cx="397.10" cy="109.50" r="6" fill="#171412"/>
<circle cx="401.00" cy="87.50" r="6" fill="#171412"/>
<circle cx="417.80" cy="107.00" r="6" fill="#171412"/>
<circle cx="405.30" cy="154.00" r="6" fill="#171412"/>
<circle cx="410.50" cy="130.20" r="6" fill="#171412"/>
<circle cx="403.40" cy="115.40" r="6" fill="#171412"/>
<circle cx="422.30" cy="116.50" r="6" fill="#171412"/>
<circle cx="432.80" cy="154.50" r="6" fill="#171412"/>
<circle cx="448.20" cy="138.70" r="6" fill="#171412"/>
<circle cx="453.50" cy="160.70" r="6" fill="#171412"/>
<circle cx="395.20" cy="212.60" r="6" fill="#171412"/>
<circle cx="420.70" cy="191.70" r="6" fill="#171412"/>
<circle cx="426.60" cy="166.50" r="6" fill="#171412"/>
<circle cx="421.10" cy="148.90" r="6" fill="#171412"/>
<circle cx="438.80" cy="152.00" r="6" fill="#171412"/>
<circle cx="445.00" cy="190.00" r="6" fill="#171412"/>
<circle cx="456.60" cy="177.70" r="6" fill="#171412"/>
<circle cx="462.00" cy="194.20" r="6" fill="#171412"/>
<circle cx="426.90" cy="223.70" r="6" fill="#171412"/>
<circle cx="449.80" cy="210.10" r="6" fill="#171412"/>
<circle cx="455.20" cy="191.80" r="6" fill="#171412"/>
<circle cx="471.30" cy="207.90" r="6" fill="#171412"/>
<circle cx="446.70" cy="235.80" r="6" fill="#171412"/>
<circle cx="461.80" cy="229.80" r="6" fill="#171412"/>
<circle cx="459.70" cy="249.00" r="6" fill="#171412"/>
</svg>
