<svg xmlns="http://www.w3.org/2000/svg" viewBox="0 0 512 512" width="512" height="512">
  <rect width="512" height="512" fill="#fdf6ef"/>
<g fill="none" stroke="#171412" stroke-linecap="round" stroke-linejoin="round">
<path stroke-width="5.00" d="M256.00 430.00 Q268.65 444.32 274.72 462.43"/>
<path stroke-width="3.00" d="M274.72 462.43 Q280.13 475.24 274.32 487.88"/>
<path stroke-width="1.80" d="M274.32 487.88 Q267.09 493.09 263.08 501.05"/>
<path stroke-width="1.08" d="M263.08 501.05 Q257.89 503.98 252.05 505.16"/>
<path stroke-width="1.08" d="M263.08 501.05 Q263.05 507.03 260.90 512.62"/>
<path stroke-width="1.80" d="M274.32 487.88 Q280.85 494.05 283.27 502.71"/>
<path stroke-width="1.08" d="M283.27 502.71 Q280.45 508.12 280.82 514.22"/>
<path stroke-width="1.08" d="M283.27 502.71 Q288.73 505.07 294.63 505.81"/>
<path stroke-width="3.00" d="M274.72 462.43 Q287.62 465.69 296.52 475.58"/>
<path stroke-width="1.80" d="M296.52 475.58 Q297.83 484.66 304.52 490.94"/>
<path stroke-width="1.08" d="M304.52 490.94 Q304.90 496.89 303.36 502.65"/>
<path stroke-width="1.08" d="M304.52 490.94 Q309.82 493.65 314.07 497.82"/>
<path stroke-width="1.80" d="M296.52 475.58 Q305.01 477.80 313.76 477.20"/>
<path stroke-width="1.08" d="M313.76 477.20 Q316.28 482.80 321.43 486.13"/>
<path stroke-width="1.08" d="M313.76 477.20 Q318.63 473.86 322.78 469.64"/>
<path stroke-width="5.00" d="M256.00 430.00 Q254.49 454.69 256.00 479.37"/>
<path stroke-width="3.00" d="M256.00 479.37 Q252.44 496.93 238.25 507.87"/>
<path stroke-width="1.80" d="M238.25 507.87 Q226.09 509.31 218.09 518.58"/>
<path stroke-width="1.08" d="M218.09 518.58 Q210.28 519.03 202.62 517.41"/>
<path stroke-width="1.08" d="M218.09 518.58 Q211.07 523.15 209.20 531.31"/>
<path stroke-width="1.80" d="M238.25 507.87 Q240.60 519.04 242.63 530.27"/>
<path stroke-width="1.08" d="M242.63 530.27 Q238.39 536.79 234.79 543.67"/>
<path stroke-width="1.08" d="M242.63 530.27 Q249.31 534.85 252.39 542.34"/>
<path stroke-width="3.00" d="M256.00 479.37 Q259.97 496.99 274.96 507.08"/>
<path stroke-width="1.80" d="M274.96 507.08 Q271.77 518.99 277.86 529.72"/>
<path stroke-width="1.08" d="M277.86 529.72 Q270.63 534.35 269.61 542.87"/>
<path stroke-width="1.08" d="M277.86 529.72 Q281.52 537.19 289.25 540.27"/>
<path stroke-width="1.80" d="M274.96 507.08 Q284.01 515.45 296.32 515.12"/>
<path stroke-width="1.08" d="M296.32 515.12 Q301.91 520.70 305.12 527.91"/>
<path stroke-width="1.08" d="M296.32 515.12 Q303.93 513.51 311.35 511.23"/>
<path stroke-width="5.00" d="M256.00 430.00 Q244.20 447.75 234.73 466.85"/>
<path stroke-width="3.00" d="M234.73 466.85 Q219.20 468.41 209.14 480.34"/>
<path stroke-width="1.80" d="M209.14 480.34 Q199.70 476.54 189.62 477.89"/>
<path stroke-width="1.08" d="M189.62 477.89 Q182.41 476.69 178.42 470.58"/>
<path stroke-width="1.08" d="M189.62 477.89 Q182.52 477.60 176.84 481.87"/>
<path stroke-width="1.80" d="M209.14 480.34 Q205.92 489.66 201.40 498.43"/>
<path stroke-width="1.08" d="M201.40 498.43 Q195.68 502.15 188.95 503.32"/>
<path stroke-width="1.08" d="M201.40 498.43 Q203.37 504.85 206.29 510.89"/>
<path stroke-width="3.00" d="M234.73 466.85 Q235.95 481.29 235.17 495.77"/>
<path stroke-width="1.80" d="M235.17 495.77 Q229.13 503.87 227.35 513.82"/>
<path stroke-width="1.08" d="M227.35 513.82 Q220.46 515.09 215.50 520.03"/>
<path stroke-width="1.08" d="M227.35 513.82 Q228.76 520.37 230.56 526.81"/>
<path stroke-width="1.80" d="M235.17 495.77 Q239.08 504.87 244.91 512.87"/>
<path stroke-width="1.08" d="M244.91 512.87 Q241.93 518.98 241.36 525.77"/>
<path stroke-width="1.08" d="M244.91 512.87 Q251.52 514.03 257.84 516.30"/>
<path stroke-width="5.00" d="M256.00 430.00 Q269.54 446.98 266.30 468.46"/>
<path stroke-width="3.00" d="M266.30 468.46 Q257.99 479.66 255.89 493.45"/>
<path stroke-width="1.80" d="M255.89 493.45 Q246.14 493.94 238.86 500.45"/>
<path stroke-width="1.08" d="M238.86 500.45 Q233.49 496.82 227.02 496.39"/>
<path stroke-width="1.08" d="M238.86 500.45 Q234.90 505.52 233.62 511.82"/>
<path stroke-width="1.80" d="M255.89 493.45 Q257.80 502.50 257.81 511.76"/>
<path stroke-width="1.08" d="M257.81 511.76 Q254.55 517.26 253.77 523.61"/>
<path stroke-width="1.08" d="M257.81 511.76 Q261.77 516.67 266.87 520.40"/>
<path stroke-width="3.00" d="M266.30 468.46 Q277.61 476.01 287.28 485.58"/>
<path stroke-width="1.80" d="M287.28 485.58 Q293.51 492.76 295.50 502.05"/>
<path stroke-width="1.08" d="M295.50 502.05 Q296.79 508.54 293.84 514.46"/>
<path stroke-width="1.08" d="M295.50 502.05 Q300.42 505.99 306.10 508.71"/>
<path stroke-width="1.80" d="M287.28 485.58 Q296.40 484.24 305.60 483.75"/>
<path stroke-width="1.08" d="M305.60 483.75 Q310.94 487.21 317.17 488.52"/>
<path stroke-width="1.08" d="M305.60 483.75 Q309.12 478.53 313.71 474.22"/>
<path stroke-width="5.00" d="M256.00 430.00 Q258.82 451.25 245.23 467.84"/>
<path stroke-width="3.00" d="M245.23 467.84 Q233.49 474.59 224.45 484.68"/>
<path stroke-width="1.80" d="M224.45 484.68 Q215.41 480.95 206.27 484.43"/>
<path stroke-width="1.08" d="M206.27 484.43 Q200.88 481.17 197.08 476.15"/>
<path stroke-width="1.08" d="M206.27 484.43 Q200.04 485.73 195.09 489.73"/>
<path stroke-width="1.80" d="M224.45 484.68 Q222.06 493.47 218.89 502.00"/>
<path stroke-width="1.08" d="M218.89 502.00 Q214.85 507.00 208.77 509.11"/>
<path stroke-width="1.08" d="M218.89 502.00 Q219.28 508.23 221.25 514.14"/>
<path stroke-width="3.00" d="M245.23 467.84 Q244.34 482.08 252.96 493.45"/>
<path stroke-width="1.80" d="M252.96 493.45 Q246.32 500.45 245.57 510.07"/>
<path stroke-width="1.08" d="M245.57 510.07 Q239.31 512.03 235.67 517.48"/>
<path stroke-width="1.08" d="M245.57 510.07 Q245.42 516.49 248.61 522.06"/>
<path stroke-width="1.80" d="M252.96 493.45 Q261.19 497.57 267.77 504.01"/>
<path stroke-width="1.08" d="M267.77 504.01 Q272.12 509.15 271.34 515.85"/>
<path stroke-width="1.08" d="M267.77 504.01 Q273.93 503.38 280.13 503.47"/>
</g>
<g fill="none" stroke="#171412" stroke-linecap="round" stroke-linejoin="round">
<path stroke-width="10.00" d="M256.00 430.00 Q269.78 365.00 256.00 300.00"/>
<path stroke-width="7.20" d="M256.00 300.00 Q237.78 249.54 196.23 215.61"/>
<path stroke-width="5.18" d="M196.23 215.61 Q162.12 201.64 136.31 175.34"/>
<path stroke-width="3.73" d="M136.31 175.34 Q111.90 167.81 86.40 169.30"/>
<path stroke-width="2.69" d="M86.40 169.30 Q67.69 176.49 47.96 180.02"/>
<path stroke-width="1.93" d="M47.96 180.02 Q33.45 182.66 22.99 193.06"/>
<path stroke-width="1.39" d="M22.99 193.06 Q19.36 203.99 10.74 211.62"/>
<path stroke-width="1.00" d="M10.74 211.62 Q12.92 220.67 8.31 228.77"/>
<path stroke-width="1.00" d="M10.74 211.62 Q2.40 212.27 -5.80 213.94"/>
<path stroke-width="1.39" d="M22.99 193.06 Q11.03 194.68 1.60 187.17"/>
<path stroke-width="1.00" d="M1.60 187.17 Q-5.90 191.18 -14.40 191.70"/>
<path stroke-width="1.00" d="M1.60 187.17 Q-0.02 178.87 -4.93 171.99"/>
<path stroke-width="1.93" d="M47.96 180.02 Q37.83 169.88 24.27 165.25"/>
<path stroke-width="1.39" d="M24.27 165.25 Q15.00 159.83 4.45 161.85"/>
<path stroke-width="1.00" d="M4.45 161.85 Q-3.49 163.89 -10.89 167.42"/>
<path stroke-width="1.00" d="M4.45 161.85 Q-1.49 156.43 -5.96 149.75"/>
<path stroke-width="1.39" d="M24.27 165.25 Q17.85 157.38 17.03 147.26"/>
<path stroke-width="1.00" d="M17.03 147.26 Q12.48 140.81 5.04 138.20"/>
<path stroke-width="1.00" d="M17.03 147.26 Q18.30 140.03 20.70 133.11"/>
<path stroke-width="2.69" d="M86.40 169.30 Q81.63 149.42 65.70 136.60"/>
<path stroke-width="1.93" d="M65.70 136.60 Q53.83 130.97 43.72 122.57"/>
<path stroke-width="1.39" d="M43.72 122.57 Q34.18 118.14 24.25 121.61"/>
<path stroke-width="1.00" d="M24.25 121.61 Q16.83 121.86 11.27 126.77"/>
<path stroke-width="1.00" d="M24.25 121.61 Q22.17 114.02 15.64 109.63"/>
<path stroke-width="1.39" d="M43.72 122.57 Q37.86 113.93 39.81 103.66"/>
<path stroke-width="1.00" d="M39.81 103.66 Q33.89 99.58 29.42 93.94"/>
<path stroke-width="1.00" d="M39.81 103.66 Q41.22 96.93 44.68 90.99"/>
<path stroke-width="1.93" d="M65.70 136.60 Q71.93 123.89 71.16 109.75"/>
<path stroke-width="1.39" d="M71.16 109.75 Q68.45 100.96 64.21 92.80"/>
<path stroke-width="1.00" d="M64.21 92.80 Q58.53 88.41 53.69 83.09"/>
<path stroke-width="1.00" d="M64.21 92.80 Q67.14 86.81 67.72 80.18"/>
<path stroke-width="1.39" d="M71.16 109.75 Q78.44 103.36 83.14 94.89"/>
<path stroke-width="1.00" d="M83.14 94.89 Q85.26 88.52 83.21 82.14"/>
<path stroke-width="1.00" d="M83.14 94.89 Q90.57 95.93 97.17 92.39"/>
<path stroke-width="3.73" d="M136.31 175.34 Q124.35 153.90 104.46 139.52"/>
<path stroke-width="2.69" d="M104.46 139.52 Q88.43 135.84 72.28 132.75"/>
<path stroke-width="1.93" d="M72.28 132.75 Q61.28 138.03 49.11 137.15"/>
<path stroke-width="1.39" d="M49.11 137.15 Q41.70 142.65 33.01 145.79"/>
<path stroke-width="1.00" d="M33.01 145.79 Q31.70 152.92 26.06 157.47"/>
<path stroke-width="1.00" d="M33.01 145.79 Q27.46 142.35 20.94 142.78"/>
<path stroke-width="1.39" d="M49.11 137.15 Q43.07 130.62 34.25 129.49"/>
<path stroke-width="1.00" d="M34.25 129.49 Q28.56 129.84 23.18 127.97"/>
<path stroke-width="1.00" d="M34.25 129.49 Q31.04 124.26 29.02 118.46"/>
<path stroke-width="1.93" d="M72.28 132.75 Q62.56 124.48 62.02 111.73"/>
<path stroke-width="1.39" d="M62.02 111.73 Q53.94 109.08 48.08 102.93"/>
<path stroke-width="1.00" d="M48.08 102.93 Q42.78 100.30 37.16 102.18"/>
<path stroke-width="1.00" d="M48.08 102.93 Q46.09 96.66 43.20 90.75"/>
<path stroke-width="1.39" d="M62.02 111.73 Q63.89 102.51 66.36 93.44"/>
<path stroke-width="1.00" d="M66.36 93.44 Q64.38 86.95 62.13 80.55"/>
<path stroke-width="1.00" d="M66.36 93.44 Q71.28 89.34 76.77 86.05"/>
<path stroke-width="2.69" d="M104.46 139.52 Q98.11 123.68 98.86 106.62"/>
<path stroke-width="1.93" d="M98.86 106.62 Q86.66 101.76 81.26 89.78"/>
<path stroke-width="1.39" d="M81.26 89.78 Q73.60 83.08 63.48 81.97"/>
<path stroke-width="1.00" d="M63.48 81.97 Q56.42 80.74 50.41 84.65"/>
<path stroke-width="1.00" d="M63.48 81.97 Q60.51 75.84 57.87 69.56"/>
<path stroke-width="1.39" d="M81.26 89.78 Q79.90 81.60 81.41 73.44"/>
<path stroke-width="1.00" d="M81.41 73.44 Q76.55 68.78 74.00 62.56"/>
<path stroke-width="1.00" d="M81.41 73.44 Q83.48 67.38 87.67 62.54"/>
<path stroke-width="1.93" d="M98.86 106.62 Q108.06 96.69 108.10 83.15"/>
<path stroke-width="1.39" d="M108.10 83.15 Q104.82 74.16 101.73 65.11"/>
<path stroke-width="1.00" d="M101.73 65.11 Q95.58 60.49 88.61 57.24"/>
<path stroke-width="1.00" d="M101.73 65.11 Q100.22 57.72 104.20 51.32"/>
<path stroke-width="1.39" d="M108.10 83.15 Q115.33 78.63 122.38 73.85"/>
<path stroke-width="1.00" d="M122.38 73.85 Q122.57 66.92 126.00 60.89"/>
<path stroke-width="1.00" d="M122.38 73.85 Q128.28 74.39 133.75 72.09"/>
<path stroke-width="3.73" d="M136.31 175.34 Q136.31 145.67 125.92 117.89"/>
<path stroke-width="2.69" d="M125.92 117.89 Q118.56 93.69 97.43 79.78"/>
<path stroke-width="1.93" d="M97.43 79.78 Q86.68 66.11 69.56 63.07"/>
<path stroke-width="1.39" d="M69.56 63.07 Q58.58 58.72 47.02 61.13"/>
<path stroke-width="1.00" d="M47.02 61.13 Q37.78 59.41 29.88 64.49"/>
<path stroke-width="1.00" d="M47.02 61.13 Q39.39 56.29 35.12 48.34"/>
<path stroke-width="1.39" d="M69.56 63.07 Q63.17 52.37 62.53 39.92"/>
<path stroke-width="1.00" d="M62.53 39.92 Q56.42 32.82 49.44 26.56"/>
<path stroke-width="1.00" d="M62.53 39.92 Q67.66 31.45 69.26 21.67"/>
<path stroke-width="1.93" d="M97.43 79.78 Q99.88 60.13 94.00 41.23"/>
<path stroke-width="1.39" d="M94.00 41.23 Q85.84 30.23 74.49 22.57"/>
<path stroke-width="1.00" d="M74.49 22.57 Q66.53 15.79 56.08 15.42"/>
<path stroke-width="1.00" d="M74.49 22.57 Q75.82 12.95 74.83 3.28"/>
<path stroke-width="1.39" d="M94.00 41.23 Q101.07 27.63 106.86 13.45"/>
<path stroke-width="1.00" d="M106.86 13.45 Q109.03 2.21 102.23 -6.99"/>
<path stroke-width="1.00" d="M106.86 13.45 Q116.15 7.07 127.28 5.20"/>
<path stroke-width="2.69" d="M125.92 117.89 Q129.09 93.64 143.77 74.09"/>
<path stroke-width="1.93" d="M143.77 74.09 Q138.43 56.36 132.83 38.71"/>
<path stroke-width="1.39" d="M132.83 38.71 Q120.39 30.83 109.86 20.54"/>
<path stroke-width="1.00" d="M109.86 20.54 Q99.82 21.15 90.71 16.87"/>
<path stroke-width="1.00" d="M109.86 20.54 Q107.46 9.14 106.97 -2.50"/>
<path stroke-width="1.39" d="M132.83 38.71 Q133.61 24.04 140.34 10.98"/>
<path stroke-width="1.00" d="M140.34 10.98 Q134.34 2.01 129.25 -7.50"/>
<path stroke-width="1.00" d="M140.34 10.98 Q147.65 4.60 153.05 -3.47"/>
<path stroke-width="1.93" d="M143.77 74.09 Q156.05 61.90 169.68 51.24"/>
<path stroke-width="1.39" d="M169.68 51.24 Q170.02 38.28 176.78 27.20"/>
<path stroke-width="1.00" d="M176.78 27.20 Q173.13 18.50 168.34 10.37"/>
<path stroke-width="1.00" d="M176.78 27.20 Q181.59 18.92 190.38 15.12"/>
<path stroke-width="1.39" d="M169.68 51.24 Q180.84 43.56 194.28 45.30"/>
<path stroke-width="1.00" d="M194.28 45.30 Q202.21 39.09 203.89 29.15"/>
<path stroke-width="1.00" d="M194.28 45.30 Q205.04 44.75 214.05 50.65"/>
<path stroke-width="5.18" d="M196.23 215.61 Q161.12 193.70 151.37 153.49"/>
<path stroke-width="3.73" d="M151.37 153.49 Q127.51 131.76 95.30 133.84"/>
<path stroke-width="2.69" d="M95.30 133.84 Q74.89 140.15 53.54 139.28"/>
<path stroke-width="1.93" d="M53.54 139.28 Q41.09 149.58 28.76 160.01"/>
<path stroke-width="1.39" d="M28.76 160.01 Q23.14 169.86 18.09 180.01"/>
<path stroke-width="1.00" d="M18.09 180.01 Q12.18 187.33 12.66 196.73"/>
<path stroke-width="1.00" d="M18.09 180.01 Q9.41 181.33 0.86 179.32"/>
<path stroke-width="1.39" d="M28.76 160.01 Q17.10 154.72 4.41 156.38"/>
<path stroke-width="1.00" d="M4.41 156.38 Q-4.04 158.14 -12.55 159.54"/>
<path stroke-width="1.00" d="M4.41 156.38 Q0.55 147.67 -7.37 142.39"/>
<path stroke-width="1.93" d="M53.54 139.28 Q42.04 130.73 29.73 123.38"/>
<path stroke-width="1.39" d="M29.73 123.38 Q18.37 124.38 8.13 119.37"/>
<path stroke-width="1.00" d="M8.13 119.37 Q-0.28 120.78 -8.58 122.72"/>
<path stroke-width="1.00" d="M8.13 119.37 Q2.40 114.52 -0.40 107.55"/>
<path stroke-width="1.39" d="M29.73 123.38 Q29.67 112.78 23.49 104.18"/>
<path stroke-width="1.00" d="M23.49 104.18 Q18.50 98.06 10.70 96.77"/>
<path stroke-width="1.00" d="M23.49 104.18 Q28.07 97.10 28.23 88.67"/>
<path stroke-width="2.69" d="M95.30 133.84 Q76.41 117.75 73.96 93.06"/>
<path stroke-width="1.93" d="M73.96 93.06 Q60.55 80.95 44.38 72.87"/>
<path stroke-width="1.39" d="M44.38 72.87 Q30.58 77.87 16.40 74.07"/>
<path stroke-width="1.00" d="M16.40 74.07 Q10.18 83.61 -0.88 86.30"/>
<path stroke-width="1.00" d="M16.40 74.07 Q7.14 69.61 1.45 61.06"/>
<path stroke-width="1.39" d="M44.38 72.87 Q44.07 60.70 39.74 49.32"/>
<path stroke-width="1.00" d="M39.74 49.32 Q31.62 45.54 25.10 39.40"/>
<path stroke-width="1.00" d="M39.74 49.32 Q43.70 41.00 49.99 34.25"/>
<path stroke-width="1.93" d="M73.96 93.06 Q74.55 74.54 82.65 57.88"/>
<path stroke-width="1.39" d="M82.65 57.88 Q72.16 48.50 70.12 34.57"/>
<path stroke-width="1.00" d="M70.12 34.57 Q64.00 24.76 52.82 21.79"/>
<path stroke-width="1.00" d="M70.12 34.57 Q73.00 24.41 76.14 14.33"/>
<path stroke-width="1.39" d="M82.65 57.88 Q90.42 46.50 103.57 42.37"/>
<path stroke-width="1.00" d="M103.57 42.37 Q103.10 31.97 105.00 21.73"/>
<path stroke-width="1.00" d="M103.57 42.37 Q111.47 38.18 120.39 37.41"/>
<path stroke-width="3.73" d="M151.37 153.49 Q147.97 122.89 125.00 102.40"/>
<path stroke-width="2.69" d="M125.00 102.40 Q102.81 96.08 88.43 78.04"/>
<path stroke-width="1.93" d="M88.43 78.04 Q72.72 67.95 54.15 69.77"/>
<path stroke-width="1.39" d="M54.15 69.77 Q41.20 67.59 29.10 72.70"/>
<path stroke-width="1.00" d="M29.10 72.70 Q19.88 75.66 11.33 80.20"/>
<path stroke-width="1.00" d="M29.10 72.70 Q21.54 67.30 13.30 62.98"/>
<path stroke-width="1.39" d="M54.15 69.77 Q48.07 57.62 41.55 45.69"/>
<path stroke-width="1.00" d="M41.55 45.69 Q32.51 42.10 26.94 34.12"/>
<path stroke-width="1.00" d="M41.55 45.69 Q44.93 36.00 46.82 25.90"/>
<path stroke-width="1.93" d="M88.43 78.04 Q76.94 63.65 74.43 45.42"/>
<path stroke-width="1.39" d="M74.43 45.42 Q62.62 42.08 52.90 34.60"/>
<path stroke-width="1.00" d="M52.90 34.60 Q43.45 32.76 33.82 32.67"/>
<path stroke-width="1.00" d="M52.90 34.60 Q49.31 26.51 44.89 18.85"/>
<path stroke-width="1.39" d="M74.43 45.42 Q78.03 32.90 76.86 19.93"/>
<path stroke-width="1.00" d="M76.86 19.93 Q73.93 9.92 67.23 1.91"/>
<path stroke-width="1.00" d="M76.86 19.93 Q81.42 10.52 91.07 6.46"/>
<path stroke-width="2.69" d="M125.00 102.40 Q132.44 82.08 138.61 61.33"/>
<path stroke-width="1.93" d="M138.61 61.33 Q140.82 44.39 130.21 30.99"/>
<path stroke-width="1.39" d="M130.21 30.99 Q124.43 21.44 115.07 15.37"/>
<path stroke-width="1.00" d="M115.07 15.37 Q108.69 8.56 99.35 8.43"/>
<path stroke-width="1.00" d="M115.07 15.37 Q114.50 6.45 111.37 -1.93"/>
<path stroke-width="1.39" d="M130.21 30.99 Q131.33 19.27 137.85 9.47"/>
<path stroke-width="1.00" d="M137.85 9.47 Q132.68 2.63 132.86 -5.93"/>
<path stroke-width="1.00" d="M137.85 9.47 Q142.75 2.14 150.97 -1.04"/>
<path stroke-width="1.93" d="M138.61 61.33 Q146.07 45.80 161.29 37.71"/>
<path stroke-width="1.39" d="M161.29 37.71 Q163.74 25.89 162.35 13.90"/>
<path stroke-width="1.00" d="M162.35 13.90 Q155.69 8.25 154.35 -0.38"/>
<path stroke-width="1.00" d="M162.35 13.90 Q165.57 4.71 172.46 -2.17"/>
<path stroke-width="1.39" d="M161.29 37.71 Q171.73 34.31 182.05 30.54"/>
<path stroke-width="1.00" d="M182.05 30.54 Q182.72 21.02 189.82 14.65"/>
<path stroke-width="1.00" d="M182.05 30.54 Q189.80 32.59 197.34 35.33"/>
<path stroke-width="3.73" d="M151.37 153.49 Q152.43 127.98 151.77 102.46"/>
<path stroke-width="2.69" d="M151.77 102.46 Q144.48 86.09 128.64 77.71"/>
<path stroke-width="1.93" d="M128.64 77.71 Q115.17 75.60 101.71 73.36"/>
<path stroke-width="1.39" d="M101.71 73.36 Q92.68 77.37 82.80 77.50"/>
<path stroke-width="1.00" d="M82.80 77.50 Q77.94 82.80 71.61 86.22"/>
<path stroke-width="1.00" d="M82.80 77.50 Q75.16 75.05 70.57 68.46"/>
<path stroke-width="1.39" d="M101.71 73.36 Q99.72 62.58 90.81 56.19"/>
<path stroke-width="1.00" d="M90.81 56.19 Q83.68 55.03 77.01 52.23"/>
<path stroke-width="1.00" d="M90.81 56.19 Q94.08 49.85 93.50 42.73"/>
<path stroke-width="1.93" d="M128.64 77.71 Q127.65 63.99 125.92 50.34"/>
<path stroke-width="1.39" d="M125.92 50.34 Q119.73 43.33 115.15 35.17"/>
<path stroke-width="1.00" d="M115.15 35.17 Q107.55 35.34 101.59 30.62"/>
<path stroke-width="1.00" d="M115.15 35.17 Q119.57 28.34 117.82 20.38"/>
<path stroke-width="1.39" d="M125.92 50.34 Q131.54 42.22 136.62 33.75"/>
<path stroke-width="1.00" d="M136.62 33.75 Q137.97 26.72 135.33 20.06"/>
<path stroke-width="1.00" d="M136.62 33.75 Q143.10 31.54 148.62 27.48"/>
<path stroke-width="2.69" d="M151.77 102.46 Q155.65 82.46 172.12 70.48"/>
<path stroke-width="1.93" d="M172.12 70.48 Q174.09 56.53 169.10 43.36"/>
<path stroke-width="1.39" d="M169.10 43.36 Q161.87 35.58 154.68 27.75"/>
<path stroke-width="1.00" d="M154.68 27.75 Q146.89 27.54 140.52 23.03"/>
<path stroke-width="1.00" d="M154.68 27.75 Q154.66 20.57 156.11 13.54"/>
<path stroke-width="1.39" d="M169.10 43.36 Q176.12 35.99 179.56 26.42"/>
<path stroke-width="1.00" d="M179.56 26.42 Q177.39 19.05 175.54 11.61"/>
<path stroke-width="1.00" d="M179.56 26.42 Q187.28 24.72 193.51 19.85"/>
<path stroke-width="1.93" d="M172.12 70.48 Q184.74 64.69 198.39 62.10"/>
<path stroke-width="1.39" d="M198.39 62.10 Q200.61 52.00 205.62 42.95"/>
<path stroke-width="1.00" d="M205.62 42.95 Q203.07 35.54 199.90 28.38"/>
<path stroke-width="1.00" d="M205.62 42.95 Q212.67 38.97 218.09 32.96"/>
<path stroke-width="1.39" d="M198.39 62.10 Q208.34 63.45 218.35 62.59"/>
<path stroke-width="1.00" d="M218.35 62.59 Q223.12 56.16 228.61 50.33"/>
<path stroke-width="1.00" d="M218.35 62.59 Q224.91 64.26 231.30 66.52"/>
<path stroke-width="5.18" d="M196.23 215.61 Q192.17 177.83 185.35 140.46"/>
<path stroke-width="3.73" d="M185.35 140.46 Q169.52 120.62 155.74 99.31"/>
<path stroke-width="2.69" d="M155.74 99.31 Q135.40 96.83 123.39 80.23"/>
<path stroke-width="1.93" d="M123.39 80.23 Q109.90 79.92 96.88 83.47"/>
<path stroke-width="1.39" d="M96.88 83.47 Q86.45 84.80 78.25 91.38"/>
<path stroke-width="1.00" d="M78.25 91.38 Q72.08 96.72 65.39 101.41"/>
<path stroke-width="1.00" d="M78.25 91.38 Q71.80 88.67 65.37 85.95"/>
<path stroke-width="1.39" d="M96.88 83.47 Q93.46 74.38 84.79 69.98"/>
<path stroke-width="1.00" d="M84.79 69.98 Q78.36 69.83 72.27 67.75"/>
<path stroke-width="1.00" d="M84.79 69.98 Q82.14 62.74 84.48 55.40"/>
<path stroke-width="1.93" d="M123.39 80.23 Q116.10 69.43 112.43 56.94"/>
<path stroke-width="1.39" d="M112.43 56.94 Q101.58 57.01 94.15 49.11"/>
<path stroke-width="1.00" d="M94.15 49.11 Q87.44 53.09 79.90 51.13"/>
<path stroke-width="1.00" d="M94.15 49.11 Q88.28 42.54 89.05 33.77"/>
<path stroke-width="1.39" d="M112.43 56.94 Q119.67 48.78 120.35 37.89"/>
<path stroke-width="1.00" d="M120.35 37.89 Q120.16 30.61 118.34 23.55"/>
<path stroke-width="1.00" d="M120.35 37.89 Q124.47 31.41 132.03 30.03"/>
<path stroke-width="2.69" d="M155.74 99.31 Q152.82 78.89 154.92 58.37"/>
<path stroke-width="1.93" d="M154.92 58.37 Q147.81 46.60 140.03 35.27"/>
<path stroke-width="1.39" d="M140.03 35.27 Q130.91 31.92 122.32 27.37"/>
<path stroke-width="1.00" d="M122.32 27.37 Q115.55 26.58 108.77 26.02"/>
<path stroke-width="1.00" d="M122.32 27.37 Q121.14 20.30 116.18 15.11"/>
<path stroke-width="1.39" d="M140.03 35.27 Q134.94 24.73 138.84 13.69"/>
<path stroke-width="1.00" d="M138.84 13.69 Q131.25 10.30 127.84 2.71"/>
<path stroke-width="1.00" d="M138.84 13.69 Q144.82 7.87 147.26 -0.12"/>
<path stroke-width="1.93" d="M154.92 58.37 Q162.11 46.23 166.61 32.85"/>
<path stroke-width="1.39" d="M166.61 32.85 Q160.77 24.28 160.39 13.91"/>
<path stroke-width="1.00" d="M160.39 13.91 Q157.76 7.08 151.00 4.27"/>
<path stroke-width="1.00" d="M160.39 13.91 Q164.00 7.59 163.38 0.34"/>
<path stroke-width="1.39" d="M166.61 32.85 Q175.39 24.08 187.80 24.04"/>
<path stroke-width="1.00" d="M187.80 24.04 Q194.80 18.05 195.75 8.89"/>
<path stroke-width="1.00" d="M187.80 24.04 Q195.96 24.77 204.14 25.25"/>
<path stroke-width="3.73" d="M185.35 140.46 Q192.93 113.82 213.21 94.97"/>
<path stroke-width="2.69" d="M213.21 94.97 Q204.57 78.10 205.68 59.19"/>
<path stroke-width="1.93" d="M205.68 59.19 Q193.09 51.92 187.67 38.44"/>
<path stroke-width="1.39" d="M187.67 38.44 Q178.84 33.87 168.99 35.18"/>
<path stroke-width="1.00" d="M168.99 35.18 Q162.57 39.54 154.93 38.15"/>
<path stroke-width="1.00" d="M168.99 35.18 Q164.39 29.25 161.14 22.48"/>
<path stroke-width="1.39" d="M187.67 38.44 Q190.62 28.36 190.22 17.87"/>
<path stroke-width="1.00" d="M190.22 17.87 Q185.44 11.66 183.43 4.08"/>
<path stroke-width="1.00" d="M190.22 17.87 Q192.64 9.89 199.12 4.64"/>
<path stroke-width="1.93" d="M205.68 59.19 Q215.75 49.28 221.26 36.27"/>
<path stroke-width="1.39" d="M221.26 36.27 Q225.01 25.58 221.87 14.70"/>
<path stroke-width="1.00" d="M221.87 14.70 Q218.80 7.82 212.79 3.28"/>
<path stroke-width="1.00" d="M221.87 14.70 Q227.17 9.44 229.10 2.23"/>
<path stroke-width="1.39" d="M221.26 36.27 Q230.47 30.78 240.96 28.58"/>
<path stroke-width="1.00" d="M240.96 28.58 Q245.23 22.26 248.85 15.55"/>
<path stroke-width="1.00" d="M240.96 28.58 Q248.30 28.17 255.04 31.11"/>
<path stroke-width="2.69" d="M213.21 94.97 Q232.07 92.79 248.35 83.02"/>
<path stroke-width="1.93" d="M248.35 83.02 Q254.03 70.22 260.62 57.87"/>
<path stroke-width="1.39" d="M260.62 57.87 Q257.36 47.76 258.60 37.22"/>
<path stroke-width="1.00" d="M258.60 37.22 Q253.20 32.05 247.35 27.38"/>
<path stroke-width="1.00" d="M258.60 37.22 Q264.70 31.27 265.35 22.78"/>
<path stroke-width="1.39" d="M260.62 57.87 Q271.03 55.29 277.52 46.76"/>
<path stroke-width="1.00" d="M277.52 46.76 Q279.11 39.69 279.78 32.47"/>
<path stroke-width="1.00" d="M277.52 46.76 Q284.40 43.00 292.14 44.29"/>
<path stroke-width="1.93" d="M248.35 83.02 Q263.83 80.27 278.46 86.04"/>
<path stroke-width="1.39" d="M278.46 86.04 Q286.41 79.20 293.25 71.27"/>
<path stroke-width="1.00" d="M293.25 71.27 Q296.78 64.42 296.70 56.72"/>
<path stroke-width="1.00" d="M293.25 71.27 Q301.34 70.97 309.27 69.31"/>
<path stroke-width="1.39" d="M278.46 86.04 Q289.42 90.06 299.63 95.73"/>
<path stroke-width="1.00" d="M299.63 95.73 Q307.75 90.96 316.58 87.68"/>
<path stroke-width="1.00" d="M299.63 95.73 Q307.96 100.52 313.74 108.20"/>
<path stroke-width="7.20" d="M256.00 300.00 Q277.61 256.32 309.35 219.34"/>
<path stroke-width="5.18" d="M309.35 219.34 Q300.25 184.93 305.44 149.71"/>
<path stroke-width="3.73" d="M305.44 149.71 Q293.19 126.47 279.28 104.18"/>
<path stroke-width="2.69" d="M279.28 104.18 Q257.22 103.93 242.15 87.83"/>
<path stroke-width="1.93" d="M242.15 87.83 Q227.57 92.27 212.33 92.24"/>
<path stroke-width="1.39" d="M212.33 92.24 Q204.61 101.82 192.35 102.76"/>
<path stroke-width="1.00" d="M192.35 102.76 Q185.90 107.91 180.12 113.79"/>
<path stroke-width="1.00" d="M192.35 102.76 Q184.69 101.99 177.48 99.32"/>
<path stroke-width="1.39" d="M212.33 92.24 Q202.51 87.10 193.31 80.91"/>
<path stroke-width="1.00" d="M193.31 80.91 Q185.51 84.26 177.11 83.12"/>
<path stroke-width="1.00" d="M193.31 80.91 Q193.80 72.88 190.52 65.53"/>
<path stroke-width="1.93" d="M242.15 87.83 Q237.04 73.23 225.53 62.89"/>
<path stroke-width="1.39" d="M225.53 62.89 Q217.26 56.21 206.66 55.42"/>
<path stroke-width="1.00" d="M206.66 55.42 Q198.90 56.58 191.66 59.61"/>
<path stroke-width="1.00" d="M206.66 55.42 Q205.73 47.56 201.52 40.85"/>
<path stroke-width="1.39" d="M225.53 62.89 Q228.52 51.20 231.71 39.56"/>
<path stroke-width="1.00" d="M231.71 39.56 Q231.45 29.05 223.76 21.87"/>
<path stroke-width="1.00" d="M231.71 39.56 Q239.32 33.82 245.83 26.86"/>
<path stroke-width="2.69" d="M279.28 104.18 Q277.90 85.02 281.91 66.24"/>
<path stroke-width="1.93" d="M281.91 66.24 Q268.88 57.05 262.39 42.48"/>
<path stroke-width="1.39" d="M262.39 42.48 Q250.56 38.37 238.31 35.75"/>
<path stroke-width="1.00" d="M238.31 35.75 Q228.42 34.84 218.61 36.37"/>
<path stroke-width="1.00" d="M238.31 35.75 Q235.85 27.18 228.20 22.60"/>
<path stroke-width="1.39" d="M262.39 42.48 Q262.14 31.27 264.36 20.29"/>
<path stroke-width="1.00" d="M264.36 20.29 Q261.07 12.05 254.10 6.57"/>
<path stroke-width="1.00" d="M264.36 20.29 Q269.44 13.83 273.81 6.86"/>
<path stroke-width="1.93" d="M281.91 66.24 Q294.22 57.61 303.69 45.93"/>
<path stroke-width="1.39" d="M303.69 45.93 Q305.61 34.34 304.16 22.68"/>
<path stroke-width="1.00" d="M304.16 22.68 Q302.04 13.98 294.94 8.52"/>
<path stroke-width="1.00" d="M304.16 22.68 Q307.75 14.32 314.65 8.39"/>
<path stroke-width="1.39" d="M303.69 45.93 Q315.27 46.80 325.50 41.29"/>
<path stroke-width="1.00" d="M325.50 41.29 Q330.79 34.84 334.31 27.27"/>
<path stroke-width="1.00" d="M325.50 41.29 Q333.95 44.15 342.79 45.35"/>
<path stroke-width="3.73" d="M305.44 149.71 Q324.67 128.87 334.32 102.22"/>
<path stroke-width="2.69" d="M334.32 102.22 Q324.85 83.02 329.41 62.11"/>
<path stroke-width="1.93" d="M329.41 62.11 Q315.19 52.75 308.00 37.33"/>
<path stroke-width="1.39" d="M308.00 37.33 Q297.00 31.70 285.92 26.25"/>
<path stroke-width="1.00" d="M285.92 26.25 Q275.83 28.10 266.24 24.46"/>
<path stroke-width="1.00" d="M285.92 26.25 Q280.25 19.33 278.15 10.65"/>
<path stroke-width="1.39" d="M308.00 37.33 Q302.08 25.35 303.47 12.06"/>
<path stroke-width="1.00" d="M303.47 12.06 Q299.88 2.08 290.82 -3.44"/>
<path stroke-width="1.00" d="M303.47 12.06 Q308.17 3.19 309.50 -6.76"/>
<path stroke-width="1.93" d="M329.41 62.11 Q333.44 47.22 344.96 36.95"/>
<path stroke-width="1.39" d="M344.96 36.95 Q345.93 24.84 342.85 13.08"/>
<path stroke-width="1.00" d="M342.85 13.08 Q335.95 7.68 332.46 -0.36"/>
<path stroke-width="1.00" d="M342.85 13.08 Q350.97 8.42 353.83 -0.51"/>
<path stroke-width="1.39" d="M344.96 36.95 Q357.55 35.98 367.45 28.14"/>
<path stroke-width="1.00" d="M367.45 28.14 Q369.25 19.76 371.86 11.59"/>
<path stroke-width="1.00" d="M367.45 28.14 Q376.67 31.85 385.94 28.27"/>
<path stroke-width="2.69" d="M334.32 102.22 Q353.14 93.64 366.87 78.16"/>
<path stroke-width="1.93" d="M366.87 78.16 Q377.14 65.09 376.99 48.47"/>
<path stroke-width="1.39" d="M376.99 48.47 Q368.86 38.85 369.62 26.28"/>
<path stroke-width="1.00" d="M369.62 26.28 Q363.35 21.41 356.07 18.23"/>
<path stroke-width="1.00" d="M369.62 26.28 Q374.25 18.66 376.93 10.15"/>
<path stroke-width="1.39" d="M376.99 48.47 Q386.72 43.34 394.79 35.85"/>
<path stroke-width="1.00" d="M394.79 35.85 Q393.88 27.97 398.30 21.39"/>
<path stroke-width="1.00" d="M394.79 35.85 Q402.52 33.10 410.61 34.44"/>
<path stroke-width="1.93" d="M366.87 78.16 Q380.87 82.95 394.66 77.57"/>
<path stroke-width="1.39" d="M394.66 77.57 Q399.68 68.73 407.90 62.76"/>
<path stroke-width="1.00" d="M407.90 62.76 Q410.14 54.98 408.82 46.99"/>
<path stroke-width="1.00" d="M407.90 62.76 Q414.94 60.61 421.64 57.56"/>
<path stroke-width="1.39" d="M394.66 77.57 Q404.34 83.41 415.29 86.18"/>
<path stroke-width="1.00" d="M415.29 86.18 Q424.09 83.65 429.77 76.48"/>
<path stroke-width="1.00" d="M415.29 86.18 Q423.70 88.95 428.53 96.36"/>
<path stroke-width="5.18" d="M309.35 219.34 Q340.68 204.45 370.29 186.36"/>
<path stroke-width="3.73" d="M370.29 186.36 Q383.91 162.96 393.19 137.53"/>
<path stroke-width="2.69" d="M393.19 137.53 Q394.73 118.27 385.43 101.34"/>
<path stroke-width="1.93" d="M385.43 101.34 Q374.73 93.16 365.06 83.78"/>
<path stroke-width="1.39" d="M365.06 83.78 Q356.06 81.42 346.88 82.90"/>
<path stroke-width="1.00" d="M346.88 82.90 Q341.75 88.04 334.75 89.94"/>
<path stroke-width="1.00" d="M346.88 82.90 Q342.37 76.93 336.41 72.41"/>
<path stroke-width="1.39" d="M365.06 83.78 Q361.01 74.03 363.64 63.80"/>
<path stroke-width="1.00" d="M363.64 63.80 Q359.33 58.50 355.14 53.12"/>
<path stroke-width="1.00" d="M363.64 63.80 Q370.36 59.22 371.85 51.22"/>
<path stroke-width="1.93" d="M385.43 101.34 Q389.89 88.08 394.31 74.80"/>
<path stroke-width="1.39" d="M394.31 74.80 Q390.83 65.67 386.65 56.84"/>
<path stroke-width="1.00" d="M386.65 56.84 Q381.49 52.76 377.11 47.85"/>
<path stroke-width="1.00" d="M386.65 56.84 Q386.78 49.62 389.69 43.02"/>
<path stroke-width="1.39" d="M394.31 74.80 Q403.13 69.30 409.55 61.12"/>
<path stroke-width="1.00" d="M409.55 61.12 Q409.39 52.77 410.53 44.49"/>
<path stroke-width="1.00" d="M409.55 61.12 Q415.47 56.74 422.82 57.12"/>
<path stroke-width="2.69" d="M393.19 137.53 Q412.31 128.67 423.85 111.03"/>
<path stroke-width="1.93" d="M423.85 111.03 Q423.55 96.90 423.64 82.78"/>
<path stroke-width="1.39" d="M423.64 82.78 Q418.89 74.53 414.06 66.32"/>
<path stroke-width="1.00" d="M414.06 66.32 Q407.49 64.83 402.76 60.02"/>
<path stroke-width="1.00" d="M414.06 66.32 Q415.34 59.18 415.25 51.92"/>
<path stroke-width="1.39" d="M423.64 82.78 Q427.58 72.55 434.90 64.40"/>
<path stroke-width="1.00" d="M434.90 64.40 Q435.45 56.43 433.87 48.60"/>
<path stroke-width="1.00" d="M434.90 64.40 Q440.49 59.02 447.54 55.76"/>
<path stroke-width="1.93" d="M423.85 111.03 Q437.22 108.62 450.80 108.41"/>
<path stroke-width="1.39" d="M450.80 108.41 Q459.59 103.36 464.04 94.26"/>
<path stroke-width="1.00" d="M464.04 94.26 Q464.53 87.73 462.99 81.35"/>
<path stroke-width="1.00" d="M464.04 94.26 Q471.71 94.75 478.40 90.97"/>
<path stroke-width="1.39" d="M450.80 108.41 Q460.90 108.51 467.91 115.79"/>
<path stroke-width="1.00" d="M467.91 115.79 Q474.09 110.98 481.89 111.65"/>
<path stroke-width="1.00" d="M467.91 115.79 Q472.55 121.38 477.74 126.47"/>
<path stroke-width="3.73" d="M370.29 186.36 Q383.09 165.65 404.86 154.74"/>
<path stroke-width="2.69" d="M404.86 154.74 Q401.97 137.23 412.69 123.08"/>
<path stroke-width="1.93" d="M412.69 123.08 Q402.70 114.82 399.83 102.18"/>
<path stroke-width="1.39" d="M399.83 102.18 Q391.96 98.65 384.18 94.95"/>
<path stroke-width="1.00" d="M384.18 94.95 Q378.25 94.78 372.54 96.37"/>
<path stroke-width="1.00" d="M384.18 94.95 Q379.46 90.92 378.12 84.86"/>
<path stroke-width="1.39" d="M399.83 102.18 Q398.54 93.02 404.31 85.79"/>
<path stroke-width="1.00" d="M404.31 85.79 Q400.09 80.24 399.10 73.34"/>
<path stroke-width="1.00" d="M404.31 85.79 Q409.02 81.81 414.10 78.33"/>
<path stroke-width="1.93" d="M412.69 123.08 Q424.37 116.48 431.95 105.41"/>
<path stroke-width="1.39" d="M431.95 105.41 Q429.90 96.72 431.29 87.90"/>
<path stroke-width="1.00" d="M431.29 87.90 Q427.89 81.95 422.63 77.54"/>
<path stroke-width="1.00" d="M431.29 87.90 Q432.96 80.55 438.66 75.62"/>
<path stroke-width="1.39" d="M431.95 105.41 Q442.41 105.17 452.31 101.80"/>
<path stroke-width="1.00" d="M452.31 101.80 Q459.15 98.71 461.83 91.69"/>
<path stroke-width="1.00" d="M452.31 101.80 Q459.93 102.33 466.63 105.99"/>
<path stroke-width="2.69" d="M404.86 154.74 Q421.35 150.06 437.92 145.62"/>
<path stroke-width="1.93" d="M437.92 145.62 Q439.25 132.35 447.24 121.68"/>
<path stroke-width="1.39" d="M447.24 121.68 Q441.67 113.53 441.99 103.67"/>
<path stroke-width="1.00" d="M441.99 103.67 Q435.75 99.54 431.56 93.34"/>
<path stroke-width="1.00" d="M441.99 103.67 Q446.04 98.34 447.03 91.71"/>
<path stroke-width="1.39" d="M447.24 121.68 Q451.20 113.29 459.74 109.67"/>
<path stroke-width="1.00" d="M459.74 109.67 Q463.08 104.30 462.65 97.98"/>
<path stroke-width="1.00" d="M459.74 109.67 Q466.45 108.89 472.80 106.57"/>
<path stroke-width="1.93" d="M437.92 145.62 Q450.23 144.64 462.55 145.65"/>
<path stroke-width="1.39" d="M462.55 145.65 Q468.84 139.26 474.55 132.35"/>
<path stroke-width="1.00" d="M474.55 132.35 Q475.14 125.88 475.02 119.38"/>
<path stroke-width="1.00" d="M474.55 132.35 Q480.64 130.81 486.79 129.54"/>
<path stroke-width="1.39" d="M462.55 145.65 Q472.46 148.45 479.03 156.37"/>
<path stroke-width="1.00" d="M479.03 156.37 Q487.01 156.38 494.01 152.55"/>
<path stroke-width="1.00" d="M479.03 156.37 Q484.87 161.44 489.31 167.77"/>
<path stroke-width="3.73" d="M370.29 186.36 Q394.66 185.54 418.90 182.83"/>
<path stroke-width="2.69" d="M418.90 182.83 Q433.05 168.75 442.03 150.92"/>
<path stroke-width="1.93" d="M442.03 150.92 Q434.25 135.83 438.61 119.42"/>
<path stroke-width="1.39" d="M438.61 119.42 Q434.79 107.89 425.53 100.04"/>
<path stroke-width="1.00" d="M425.53 100.04 Q415.73 100.53 408.12 94.35"/>
<path stroke-width="1.00" d="M425.53 100.04 Q426.53 91.36 427.66 82.69"/>
<path stroke-width="1.39" d="M438.61 119.42 Q447.06 111.55 447.20 100.02"/>
<path stroke-width="1.00" d="M447.20 100.02 Q443.67 93.75 443.03 86.58"/>
<path stroke-width="1.00" d="M447.20 100.02 Q453.31 95.84 458.78 90.87"/>
<path stroke-width="1.93" d="M442.03 150.92 Q454.24 146.12 466.50 141.43"/>
<path stroke-width="1.39" d="M466.50 141.43 Q468.23 131.95 475.06 125.14"/>
<path stroke-width="1.00" d="M475.06 125.14 Q471.30 119.51 471.58 112.75"/>
<path stroke-width="1.00" d="M475.06 125.14 Q480.49 120.51 486.32 116.37"/>
<path stroke-width="1.39" d="M466.50 141.43 Q475.69 142.49 484.50 145.28"/>
<path stroke-width="1.00" d="M484.50 145.28 Q491.93 143.95 496.44 137.90"/>
<path stroke-width="1.00" d="M484.50 145.28 Q489.23 149.41 493.17 154.29"/>
<path stroke-width="2.69" d="M418.90 182.83 Q435.24 193.29 454.01 198.18"/>
<path stroke-width="1.93" d="M454.01 198.18 Q469.89 198.88 481.58 188.13"/>
<path stroke-width="1.39" d="M481.58 188.13 Q482.73 177.85 487.84 168.86"/>
<path stroke-width="1.00" d="M487.84 168.86 Q483.47 162.06 480.43 154.58"/>
<path stroke-width="1.00" d="M487.84 168.86 Q493.48 164.56 500.21 162.34"/>
<path stroke-width="1.39" d="M481.58 188.13 Q492.56 185.97 502.77 190.53"/>
<path stroke-width="1.00" d="M502.77 190.53 Q509.48 187.71 514.60 182.52"/>
<path stroke-width="1.00" d="M502.77 190.53 Q508.62 195.61 516.25 197.02"/>
<path stroke-width="1.93" d="M454.01 198.18 Q468.08 203.46 475.17 216.71"/>
<path stroke-width="1.39" d="M475.17 216.71 Q485.30 218.33 493.63 212.34"/>
<path stroke-width="1.00" d="M493.63 212.34 Q499.09 207.05 500.13 199.52"/>
<path stroke-width="1.00" d="M493.63 212.34 Q501.33 211.05 507.96 215.18"/>
<path stroke-width="1.39" d="M475.17 216.71 Q480.60 225.39 487.24 233.18"/>
<path stroke-width="1.00" d="M487.24 233.18 Q495.44 236.04 503.65 233.21"/>
<path stroke-width="1.00" d="M487.24 233.18 Q490.79 240.04 489.54 247.65"/>
</g>
</svg>
