<svg xmlns="http://www.w3.org/2000/svg" viewBox="0 0 512 512" width="512" height="512">
  <rect width="512" height="512" fill="#fdf6ef"/>
<path fill="#171412" d="M230 468 C243 432 253 240 253 130 Q256 124 259 130 C259 240 269 432 282 468 Z"/>
<g fill="none" stroke="#171412" stroke-linecap="round" stroke-linejoin="round" id="fc-right-whimsy">
<path stroke-width="3.50" d="M259.06 150.28 Q264.54 119.85 266.20 108.89"/>
<path stroke-width="2.31" d="M266.20 108.89 Q268.45 89.39 269.85 81.22"/>
<path stroke-width="1.52" d="M269.85 81.22 Q272.60 67.53 272.81 61.52"/>
<path stroke-width="1.01" d="M272.81 61.52 Q272.23 53.71 272.81 49.32"/>
<path stroke-width="1.52" d="M269.85 81.22 Q266.30 68.32 263.38 62.88"/>
<path stroke-width="1.01" d="M263.38 62.88 Q261.03 54.09 258.47 49.51"/>
<path stroke-width="1.01" d="M263.38 62.88 Q263.24 55.11 264.57 51.23"/>
<path stroke-width="2.31" d="M266.20 108.89 Q263.44 88.23 261.36 79.38"/>
<path stroke-width="1.52" d="M261.36 79.38 Q258.31 67.88 257.42 62.37"/>
<path stroke-width="1.01" d="M257.42 62.37 Q256.13 54.94 254.97 51.38"/>
<path stroke-width="1.01" d="M257.42 62.37 Q254.94 55.47 252.58 52.15"/>
<path stroke-width="1.52" d="M261.36 79.38 Q257.98 68.47 252.41 63.83"/>
<path stroke-width="1.01" d="M252.41 63.83 Q250.32 56.43 247.05 53.36"/>
<path stroke-width="1.52" d="M261.36 79.38 Q262.88 64.11 263.92 57.65"/>
<path stroke-width="1.01" d="M263.92 57.65 Q263.32 48.85 263.69 43.84"/>
<path stroke-width="1.01" d="M263.92 57.65 Q268.09 48.86 270.01 44.68"/>
<path stroke-width="2.31" d="M266.20 108.89 Q271.27 90.63 276.53 83.13"/>
<path stroke-width="1.52" d="M276.53 83.13 Q279.21 70.81 281.83 65.79"/>
<path stroke-width="1.01" d="M281.83 65.79 Q283.75 58.47 286.33 54.81"/>
<path stroke-width="1.52" d="M276.53 83.13 Q281.22 72.97 288.62 69.21"/>
<path stroke-width="1.01" d="M288.62 69.21 Q292.64 62.91 297.47 60.46"/>
<path stroke-width="1.01" d="M288.62 69.21 Q291.29 61.23 293.11 57.37"/>
<path stroke-width="4.50" d="M260.25 197.60 Q276.12 158.19 288.37 142.35"/>
<path stroke-width="2.97" d="M288.37 142.35 Q294.51 119.34 303.55 109.38"/>
<path stroke-width="1.96" d="M303.55 109.38 Q308.53 93.83 314.28 86.71"/>
<path stroke-width="1.29" d="M314.28 86.71 Q317.75 75.91 322.59 71.08"/>
<path stroke-width="1.96" d="M303.55 109.38 Q307.64 92.02 307.83 83.75"/>
<path stroke-width="1.29" d="M307.83 83.75 Q307.57 72.92 308.11 67.08"/>
<path stroke-width="2.97" d="M288.37 142.35 Q290.01 115.02 292.67 104.21"/>
<path stroke-width="1.96" d="M292.67 104.21 Q292.26 88.26 294.96 80.92"/>
<path stroke-width="1.29" d="M294.96 80.92 Q296.18 70.13 298.83 64.07"/>
<path stroke-width="1.29" d="M294.96 80.92 Q300.89 71.70 304.39 67.56"/>
<path stroke-width="1.96" d="M292.67 104.21 Q300.42 87.32 304.56 81.08"/>
<path stroke-width="1.29" d="M304.56 81.08 Q307.06 70.55 311.66 65.25"/>
<path stroke-width="1.29" d="M304.56 81.08 Q309.47 72.63 316.96 69.01"/>
<path stroke-width="2.97" d="M288.37 142.35 Q298.24 121.08 313.53 115.01"/>
<path stroke-width="1.96" d="M313.53 115.01 Q320.71 103.12 330.79 99.74"/>
<path stroke-width="1.29" d="M330.79 99.74 Q336.27 93.33 342.27 91.75"/>
<path stroke-width="1.96" d="M313.53 115.01 Q318.85 100.42 322.15 94.81"/>
<path stroke-width="1.29" d="M322.15 94.81 Q324.78 84.89 326.71 79.58"/>
<path stroke-width="5.50" d="M261.69 255.06 Q286.40 204.68 317.64 195.11"/>
<path stroke-width="3.63" d="M317.64 195.11 Q334.17 167.94 351.68 160.55"/>
<path stroke-width="2.40" d="M351.68 160.55 Q360.70 143.68 374.82 137.40"/>
<path stroke-width="1.58" d="M374.82 137.40 Q383.15 126.13 388.32 121.03"/>
<path stroke-width="1.04" d="M388.32 121.03 Q392.11 112.66 394.30 108.73"/>
<path stroke-width="1.58" d="M374.82 137.40 Q378.36 123.04 382.03 115.62"/>
<path stroke-width="1.04" d="M382.03 115.62 Q385.10 106.78 387.06 102.37"/>
<path stroke-width="1.04" d="M382.03 115.62 Q380.33 104.92 380.52 99.01"/>
<path stroke-width="2.40" d="M351.68 160.55 Q356.64 140.60 365.02 132.87"/>
<path stroke-width="1.58" d="M365.02 132.87 Q369.88 121.84 376.02 116.98"/>
<path stroke-width="1.04" d="M376.02 116.98 Q378.25 109.53 381.86 105.46"/>
<path stroke-width="1.04" d="M376.02 116.98 Q382.59 111.46 387.10 109.99"/>
<path stroke-width="1.58" d="M365.02 132.87 Q366.92 119.86 367.19 113.17"/>
<path stroke-width="1.04" d="M367.19 113.17 Q366.07 104.41 366.42 99.84"/>
<path stroke-width="2.40" d="M351.68 160.55 Q367.53 148.26 378.97 146.37"/>
<path stroke-width="1.58" d="M378.97 146.37 Q385.96 137.00 395.66 134.71"/>
<path stroke-width="1.04" d="M395.66 134.71 Q400.58 129.61 405.20 127.57"/>
<path stroke-width="1.58" d="M378.97 146.37 Q386.39 133.42 391.54 128.45"/>
<path stroke-width="1.04" d="M391.54 128.45 Q394.71 118.81 397.71 113.98"/>
<path stroke-width="1.04" d="M391.54 128.45 Q392.58 118.81 394.48 114.01"/>
<path stroke-width="1.58" d="M378.97 146.37 Q387.85 138.25 399.28 138.16"/>
<path stroke-width="1.04" d="M399.28 138.16 Q403.04 131.77 408.76 129.10"/>
<path stroke-width="3.63" d="M317.64 195.11 Q330.87 160.65 343.99 147.03"/>
<path stroke-width="2.40" d="M343.99 147.03 Q350.71 125.80 357.88 115.64"/>
<path stroke-width="1.58" d="M357.88 115.64 Q361.68 102.78 365.82 95.95"/>
<path stroke-width="1.04" d="M365.82 95.95 Q368.04 87.11 369.83 82.69"/>
<path stroke-width="1.58" d="M357.88 115.64 Q367.72 102.76 375.47 97.70"/>
<path stroke-width="1.04" d="M375.47 97.70 Q380.41 89.15 384.05 85.37"/>
<path stroke-width="1.04" d="M375.47 97.70 Q383.29 90.40 389.39 87.86"/>
<path stroke-width="2.40" d="M343.99 147.03 Q344.02 121.31 349.86 110.00"/>
<path stroke-width="1.58" d="M349.86 110.00 Q355.61 91.83 357.14 83.25"/>
<path stroke-width="1.04" d="M357.14 83.25 Q356.84 69.92 359.24 63.23"/>
<path stroke-width="1.58" d="M349.86 110.00 Q359.00 96.91 365.87 92.49"/>
<path stroke-width="1.04" d="M365.87 92.49 Q370.55 82.71 374.31 77.50"/>
<path stroke-width="6.50" d="M263.31 319.28 Q297.19 279.06 331.90 274.34"/>
<path stroke-width="4.29" d="M331.90 274.34 Q354.94 245.51 375.18 238.78"/>
<path stroke-width="2.83" d="M375.18 238.78 Q386.02 219.92 400.43 213.55"/>
<path stroke-width="1.87" d="M400.43 213.55 Q407.39 199.44 415.94 194.25"/>
<path stroke-width="1.23" d="M415.94 194.25 Q421.31 184.84 427.10 180.56"/>
<path stroke-width="1.87" d="M400.43 213.55 Q403.59 198.54 409.25 191.82"/>
<path stroke-width="1.23" d="M409.25 191.82 Q410.40 181.58 414.17 175.99"/>
<path stroke-width="1.87" d="M400.43 213.55 Q408.62 204.79 418.68 203.14"/>
<path stroke-width="1.23" d="M418.68 203.14 Q422.39 197.15 427.74 194.48"/>
<path stroke-width="1.23" d="M418.68 203.14 Q421.75 195.67 425.60 191.62"/>
<path stroke-width="2.83" d="M375.18 238.78 Q382.88 218.64 390.59 209.05"/>
<path stroke-width="1.87" d="M390.59 209.05 Q393.30 195.45 399.43 188.88"/>
<path stroke-width="1.23" d="M399.43 188.88 Q404.07 179.81 407.72 175.68"/>
<path stroke-width="1.23" d="M399.43 188.88 Q399.52 180.65 401.08 176.17"/>
<path stroke-width="1.87" d="M390.59 209.05 Q391.30 193.57 392.30 184.86"/>
<path stroke-width="1.23" d="M392.30 184.86 Q392.21 174.44 392.44 169.20"/>
<path stroke-width="1.23" d="M392.30 184.86 Q395.56 175.30 398.36 170.54"/>
<path stroke-width="1.87" d="M390.59 209.05 Q396.25 196.61 404.53 191.89"/>
<path stroke-width="1.23" d="M404.53 191.89 Q408.10 183.97 411.70 180.44"/>
<path stroke-width="2.83" d="M375.18 238.78 Q393.79 224.31 408.23 221.95"/>
<path stroke-width="1.87" d="M408.23 221.95 Q416.57 210.33 425.88 206.54"/>
<path stroke-width="1.23" d="M425.88 206.54 Q430.85 199.55 436.67 196.55"/>
<path stroke-width="1.23" d="M425.88 206.54 Q432.90 201.08 440.24 200.41"/>
<path stroke-width="1.87" d="M408.23 221.95 Q419.10 215.66 428.91 215.37"/>
<path stroke-width="1.23" d="M428.91 215.37 Q435.00 208.32 441.85 206.19"/>
<path stroke-width="1.23" d="M428.91 215.37 Q435.83 210.99 443.48 211.28"/>
<path stroke-width="4.29" d="M331.90 274.34 Q348.69 243.46 359.67 231.43"/>
<path stroke-width="2.83" d="M359.67 231.43 Q367.54 208.60 374.90 197.75"/>
<path stroke-width="1.87" d="M374.90 197.75 Q377.59 183.76 382.90 176.67"/>
<path stroke-width="1.23" d="M382.90 176.67 Q387.04 167.87 389.00 163.06"/>
<path stroke-width="1.23" d="M382.90 176.67 Q389.25 169.13 393.51 165.63"/>
<path stroke-width="1.87" d="M374.90 197.75 Q375.53 182.88 374.72 175.38"/>
<path stroke-width="1.23" d="M374.72 175.38 Q374.68 166.21 373.35 160.86"/>
<path stroke-width="1.23" d="M374.72 175.38 Q378.25 166.71 379.55 162.29"/>
<path stroke-width="2.83" d="M359.67 231.43 Q362.72 208.80 365.27 198.25"/>
<path stroke-width="1.87" d="M365.27 198.25 Q366.66 183.44 367.88 176.16"/>
<path stroke-width="1.23" d="M367.88 176.16 Q368.19 167.16 370.16 162.40"/>
<path stroke-width="1.23" d="M367.88 176.16 Q370.16 167.95 373.49 163.92"/>
<path stroke-width="1.87" d="M365.27 198.25 Q364.26 183.67 362.96 176.51"/>
<path stroke-width="1.23" d="M362.96 176.51 Q361.42 167.87 360.73 163.40"/>
<path stroke-width="1.23" d="M362.96 176.51 Q365.59 166.35 365.93 161.06"/>
<path stroke-width="1.87" d="M365.27 198.25 Q369.62 186.37 375.27 180.52"/>
<path stroke-width="1.23" d="M375.27 180.52 Q376.66 173.20 379.94 169.08"/>
<path stroke-width="1.23" d="M375.27 180.52 Q381.05 174.63 385.29 171.99"/>
<path stroke-width="2.83" d="M359.67 231.43 Q372.91 212.32 381.85 206.51"/>
<path stroke-width="1.87" d="M381.85 206.51 Q389.36 193.79 396.28 188.19"/>
<path stroke-width="1.23" d="M396.28 188.19 Q401.69 178.72 406.27 174.47"/>
<path stroke-width="1.23" d="M396.28 188.19 Q402.67 181.25 410.64 179.29"/>
<path stroke-width="1.87" d="M381.85 206.51 Q386.50 191.40 387.39 183.48"/>
<path stroke-width="1.23" d="M387.39 183.48 Q388.43 172.58 389.79 166.71"/>
<path stroke-width="1.23" d="M387.39 183.48 Q385.46 173.09 381.64 167.96"/>
<path stroke-width="4.29" d="M331.90 274.34 Q354.74 256.91 380.18 256.88"/>
<path stroke-width="2.83" d="M380.18 256.88 Q394.59 240.76 407.20 237.02"/>
<path stroke-width="1.87" d="M407.20 237.02 Q414.82 226.49 423.87 222.67"/>
<path stroke-width="1.23" d="M423.87 222.67 Q426.84 214.64 431.99 211.21"/>
<path stroke-width="1.87" d="M407.20 237.02 Q419.02 229.62 430.11 229.13"/>
<path stroke-width="1.23" d="M430.11 229.13 Q436.03 221.82 444.47 219.90"/>
<path stroke-width="2.83" d="M380.18 256.88 Q397.56 245.65 412.22 246.75"/>
<path stroke-width="1.87" d="M412.22 246.75 Q422.09 235.02 430.71 230.84"/>
<path stroke-width="1.23" d="M430.71 230.84 Q435.92 222.24 442.84 219.01"/>
<path stroke-width="1.23" d="M430.71 230.84 Q438.96 224.64 446.47 223.00"/>
<path stroke-width="1.87" d="M412.22 246.75 Q423.76 241.33 433.82 242.49"/>
<path stroke-width="1.23" d="M433.82 242.49 Q438.03 235.76 443.68 233.01"/>
<path stroke-width="7.50" d="M264.84 380.12 Q302.68 349.43 335.29 354.40"/>
<path stroke-width="4.95" d="M335.29 354.40 Q353.41 327.15 376.14 323.19"/>
<path stroke-width="3.27" d="M376.14 323.19 Q386.92 306.35 401.78 301.97"/>
<path stroke-width="2.16" d="M401.78 301.97 Q410.46 292.56 418.22 290.42"/>
<path stroke-width="3.27" d="M376.14 323.19 Q383.71 303.07 395.52 295.81"/>
<path stroke-width="2.16" d="M395.52 295.81 Q401.88 283.56 408.35 278.31"/>
<path stroke-width="2.16" d="M395.52 295.81 Q397.56 280.73 401.42 272.93"/>
<path stroke-width="3.27" d="M376.14 323.19 Q391.44 311.86 404.92 312.96"/>
<path stroke-width="2.16" d="M404.92 312.96 Q413.85 303.35 422.34 300.51"/>
<path stroke-width="4.95" d="M335.29 354.40 Q353.02 326.70 363.76 315.56"/>
<path stroke-width="3.27" d="M363.76 315.56 Q370.73 295.33 381.95 285.94"/>
<path stroke-width="2.16" d="M381.95 285.94 Q387.83 271.47 393.01 265.08"/>
<path stroke-width="3.27" d="M363.76 315.56 Q364.67 292.40 370.03 280.51"/>
<path stroke-width="2.16" d="M370.03 280.51 Q373.77 262.91 374.94 254.89"/>
<path stroke-width="2.16" d="M370.03 280.51 Q368.01 264.55 366.21 256.42"/>
<path stroke-width="3.27" d="M363.76 315.56 Q376.00 298.96 387.21 294.87"/>
<path stroke-width="2.16" d="M387.21 294.87 Q393.36 284.87 402.38 280.92"/>
<path stroke-width="4.95" d="M335.29 354.40 Q360.91 339.39 379.85 340.86"/>
<path stroke-width="3.27" d="M379.85 340.86 Q391.88 327.37 400.82 323.52"/>
<path stroke-width="2.16" d="M400.82 323.52 Q405.69 314.45 410.58 310.96"/>
<path stroke-width="2.16" d="M400.82 323.52 Q410.23 316.63 419.47 316.39"/>
<path stroke-width="3.27" d="M379.85 340.86 Q390.82 322.28 397.57 315.05"/>
<path stroke-width="2.16" d="M397.57 315.05 Q404.54 302.66 409.11 296.47"/>
<path stroke-width="2.16" d="M397.57 315.05 Q405.78 305.33 413.16 301.99"/>
<path stroke-width="3.27" d="M379.85 340.86 Q391.91 331.09 406.28 331.47"/>
<path stroke-width="2.16" d="M406.28 331.47 Q412.49 323.40 419.77 320.42"/>
<path stroke-width="7.50" d="M266.20 434.20 Q298.56 415.83 325.23 423.46"/>
<path stroke-width="4.95" d="M325.23 423.46 Q341.12 400.68 355.25 394.34"/>
<path stroke-width="3.27" d="M355.25 394.34 Q365.51 378.57 371.69 371.57"/>
<path stroke-width="2.16" d="M371.69 371.57 Q377.10 358.76 380.56 353.14"/>
<path stroke-width="3.27" d="M355.25 394.34 Q360.80 378.18 364.31 370.81"/>
<path stroke-width="2.16" d="M364.31 370.81 Q367.06 361.87 369.90 357.17"/>
<path stroke-width="4.95" d="M325.23 423.46 Q334.99 398.88 342.33 389.98"/>
<path stroke-width="3.27" d="M342.33 389.98 Q346.57 376.06 352.79 370.63"/>
<path stroke-width="2.16" d="M352.79 370.63 Q356.58 363.04 360.51 359.26"/>
<path stroke-width="3.27" d="M342.33 389.98 Q343.37 371.62 345.33 363.51"/>
<path stroke-width="2.16" d="M345.33 363.51 Q347.96 351.56 348.64 345.18"/>
<path stroke-width="2.16" d="M345.33 363.51 Q350.35 353.45 353.92 349.11"/>
</g>
<use href="#fc-right-whimsy" transform="matrix(-1 0 0 1 512 0)"/>
</svg>
