<svg xmlns="http://www.w3.org/2000/svg" viewBox="0 0 512 512" width="512" height="512">
  <rect width="512" height="512" fill="#fdf6ef"/>
<g fill="none" stroke="#171412" stroke-linecap="round" stroke-linejoin="round" id="fc-right-roots">
<path stroke-width="14.00" d="M256.00 390.00 Q271.11 406.41 293.36 407.99"/>
<path stroke-width="8.40" d="M293.36 407.99 Q296.27 422.17 307.31 431.54"/>
<path stroke-width="5.04" d="M307.31 431.54 Q304.89 440.29 304.22 449.34"/>
<path stroke-width="3.02" d="M304.22 449.34 Q302.51 455.33 297.78 459.37"/>
<path stroke-width="3.02" d="M304.22 449.34 Q305.27 455.36 308.78 460.36"/>
<path stroke-width="5.04" d="M307.31 431.54 Q316.96 433.35 322.33 441.58"/>
<path stroke-width="3.02" d="M322.33 441.58 Q327.00 445.71 328.56 451.74"/>
<path stroke-width="3.02" d="M322.33 441.58 Q328.33 441.47 334.18 442.86"/>
<path stroke-width="8.40" d="M293.36 407.99 Q308.00 410.26 319.96 401.54"/>
<path stroke-width="5.04" d="M319.96 401.54 Q329.08 402.49 337.35 406.43"/>
<path stroke-width="3.02" d="M337.35 406.43 Q340.00 412.10 345.47 415.16"/>
<path stroke-width="3.02" d="M337.35 406.43 Q341.85 401.95 348.18 401.43"/>
<path stroke-width="5.04" d="M319.96 401.54 Q324.80 393.88 330.68 387.00"/>
<path stroke-width="3.02" d="M330.68 387.00 Q334.81 382.23 341.01 381.05"/>
<path stroke-width="3.02" d="M330.68 387.00 Q331.39 381.07 331.28 375.10"/>
<path stroke-width="14.00" d="M256.00 390.00 Q262.13 414.55 284.70 425.99"/>
<path stroke-width="8.40" d="M284.70 425.99 Q286.01 441.25 283.48 456.35"/>
<path stroke-width="5.04" d="M283.48 456.35 Q277.54 464.43 271.04 472.08"/>
<path stroke-width="3.02" d="M271.04 472.08 Q264.46 473.31 258.57 476.51"/>
<path stroke-width="3.02" d="M271.04 472.08 Q268.11 478.33 269.06 485.17"/>
<path stroke-width="5.04" d="M283.48 456.35 Q290.14 464.25 292.35 474.34"/>
<path stroke-width="3.02" d="M292.35 474.34 Q291.70 480.93 290.29 487.41"/>
<path stroke-width="3.02" d="M292.35 474.34 Q296.14 480.05 302.29 483.07"/>
<path stroke-width="8.40" d="M284.70 425.99 Q297.34 434.81 312.16 438.99"/>
<path stroke-width="5.04" d="M312.16 438.99 Q316.27 448.15 321.11 456.94"/>
<path stroke-width="3.02" d="M321.11 456.94 Q320.73 463.67 317.81 469.75"/>
<path stroke-width="3.02" d="M321.11 456.94 Q328.39 457.25 332.89 462.97"/>
<path stroke-width="5.04" d="M312.16 438.99 Q321.06 433.61 331.46 433.53"/>
<path stroke-width="3.02" d="M331.46 433.53 Q338.66 432.74 344.08 437.53"/>
<path stroke-width="3.02" d="M331.46 433.53 Q337.69 430.51 341.13 424.50"/>
<path stroke-width="14.00" d="M256.00 390.00 Q269.97 408.86 264.67 431.73"/>
<path stroke-width="8.40" d="M264.67 431.73 Q252.78 441.93 253.57 457.58"/>
<path stroke-width="5.04" d="M253.57 457.58 Q243.87 458.86 236.86 465.67"/>
<path stroke-width="3.02" d="M236.86 465.67 Q230.73 464.85 224.60 465.71"/>
<path stroke-width="3.02" d="M236.86 465.67 Q234.06 471.14 232.13 476.97"/>
<path stroke-width="5.04" d="M253.57 457.58 Q250.34 466.81 253.27 476.14"/>
<path stroke-width="3.02" d="M253.27 476.14 Q248.44 480.48 247.37 486.88"/>
<path stroke-width="3.02" d="M253.27 476.14 Q258.65 480.37 258.53 487.21"/>
<path stroke-width="8.40" d="M264.67 431.73 Q274.43 441.94 285.87 450.22"/>
<path stroke-width="5.04" d="M285.87 450.22 Q289.97 458.56 294.43 466.70"/>
<path stroke-width="3.02" d="M294.43 466.70 Q292.89 472.66 292.43 478.79"/>
<path stroke-width="3.02" d="M294.43 466.70 Q300.78 468.40 304.31 473.94"/>
<path stroke-width="5.04" d="M285.87 450.22 Q293.88 455.44 303.40 456.34"/>
<path stroke-width="3.02" d="M303.40 456.34 Q305.33 462.43 310.24 466.51"/>
<path stroke-width="3.02" d="M303.40 456.34 Q309.74 458.56 315.61 455.30"/>
</g>
<use href="#fc-right-roots" transform="matrix(-1 0 0 1 512 0)"/>
<path fill="none" stroke="#171412" stroke-width="8" stroke-linecap="round" d="M64.00 402.00 L448.00 402.00"/>
<g fill="none" stroke="#171412" stroke-linecap="round" stroke-linejoin="round">
<path stroke-width="24.00" d="M256.00 390.00 L256.00 300.00"/>
</g>
<g fill="none" stroke="#171412" stroke-linecap="round" stroke-linejoin="round" id="fc-right">
<path stroke-width="15.84" d="M256.00 300.00 Q281.53 274.98 288.79 239.97"/>
<path stroke-width="10.45" d="M288.79 239.97 Q288.71 213.20 288.47 186.43"/>
<path stroke-width="6.90" d="M288.47 186.43 Q276.76 170.28 273.91 150.54"/>
<path stroke-width="4.55" d="M273.91 150.54 Q259.57 143.77 250.70 130.62"/>
<path stroke-width="3.01" d="M250.70 130.62 Q240.75 129.27 231.93 124.46"/>
<path stroke-width="1.98" d="M231.93 124.46 Q225.50 125.34 219.14 124.09"/>
<path stroke-width="1.98" d="M231.93 124.46 Q225.79 121.22 222.95 114.88"/>
<path stroke-width="3.01" d="M250.70 130.62 Q249.15 119.72 242.78 110.74"/>
<path stroke-width="1.98" d="M242.78 110.74 Q238.21 103.39 230.80 98.91"/>
<path stroke-width="1.98" d="M242.78 110.74 Q243.08 102.73 240.36 95.20"/>
<path stroke-width="4.55" d="M273.91 150.54 Q273.39 137.83 272.44 125.15"/>
<path stroke-width="3.01" d="M272.44 125.15 Q265.92 118.70 261.50 110.67"/>
<path stroke-width="1.98" d="M261.50 110.67 Q256.20 107.89 251.67 103.96"/>
<path stroke-width="1.98" d="M261.50 110.67 Q258.57 105.23 259.39 99.11"/>
<path stroke-width="3.01" d="M272.44 125.15 Q273.33 115.78 274.57 106.45"/>
<path stroke-width="1.98" d="M274.57 106.45 Q272.61 100.33 269.60 94.65"/>
<path stroke-width="1.98" d="M274.57 106.45 Q276.32 99.37 279.51 92.81"/>
<path stroke-width="6.90" d="M288.47 186.43 Q284.52 166.01 293.74 147.37"/>
<path stroke-width="4.55" d="M293.74 147.37 Q283.54 137.16 281.58 122.86"/>
<path stroke-width="3.01" d="M281.58 122.86 Q274.55 115.45 264.60 113.14"/>
<path stroke-width="1.98" d="M264.60 113.14 Q258.21 111.47 251.63 111.06"/>
<path stroke-width="1.98" d="M264.60 113.14 Q259.63 107.94 254.53 102.87"/>
<path stroke-width="3.01" d="M281.58 122.86 Q282.11 113.09 276.34 105.19"/>
<path stroke-width="1.98" d="M276.34 105.19 Q270.41 101.43 265.60 96.32"/>
<path stroke-width="1.98" d="M276.34 105.19 Q276.82 97.75 274.49 90.66"/>
<path stroke-width="4.55" d="M293.74 147.37 Q297.27 134.33 301.71 121.59"/>
<path stroke-width="3.01" d="M301.71 121.59 Q298.27 113.03 299.70 103.92"/>
<path stroke-width="1.98" d="M299.70 103.92 Q294.17 99.18 291.68 92.32"/>
<path stroke-width="1.98" d="M299.70 103.92 Q301.99 98.40 301.68 92.43"/>
<path stroke-width="3.01" d="M301.71 121.59 Q308.22 113.99 310.82 104.33"/>
<path stroke-width="1.98" d="M310.82 104.33 Q310.09 97.11 307.98 90.17"/>
<path stroke-width="1.98" d="M310.82 104.33 Q314.87 97.77 321.87 94.55"/>
<path stroke-width="10.45" d="M288.79 239.97 Q305.70 222.88 314.24 200.40"/>
<path stroke-width="6.90" d="M314.24 200.40 Q319.62 184.35 318.35 167.47"/>
<path stroke-width="4.55" d="M318.35 167.47 Q309.53 159.11 307.50 147.12"/>
<path stroke-width="3.01" d="M307.50 147.12 Q301.65 141.43 293.81 139.16"/>
<path stroke-width="1.98" d="M293.81 139.16 Q288.13 138.79 282.47 138.15"/>
<path stroke-width="1.98" d="M293.81 139.16 Q290.98 133.53 286.65 128.96"/>
<path stroke-width="3.01" d="M307.50 147.12 Q307.38 138.28 306.26 129.51"/>
<path stroke-width="1.98" d="M306.26 129.51 Q301.92 123.84 300.31 116.88"/>
<path stroke-width="1.98" d="M306.26 129.51 Q308.01 123.35 309.67 117.16"/>
<path stroke-width="4.55" d="M318.35 167.47 Q320.58 154.34 328.90 143.95"/>
<path stroke-width="3.01" d="M328.90 143.95 Q328.19 133.81 325.32 124.05"/>
<path stroke-width="1.98" d="M325.32 124.05 Q321.21 118.28 317.99 111.98"/>
<path stroke-width="1.98" d="M325.32 124.05 Q328.35 116.82 326.23 109.26"/>
<path stroke-width="3.01" d="M328.90 143.95 Q332.70 135.84 338.34 128.90"/>
<path stroke-width="1.98" d="M338.34 128.90 Q336.41 122.28 338.04 115.59"/>
<path stroke-width="1.98" d="M338.34 128.90 Q344.25 125.48 348.02 119.79"/>
<path stroke-width="6.90" d="M314.24 200.40 Q318.83 184.10 329.11 170.63"/>
<path stroke-width="4.55" d="M329.11 170.63 Q325.71 159.28 330.29 148.35"/>
<path stroke-width="3.01" d="M330.29 148.35 Q328.54 140.80 323.26 135.12"/>
<path stroke-width="1.98" d="M323.26 135.12 Q317.72 133.41 314.48 128.62"/>
<path stroke-width="1.98" d="M323.26 135.12 Q320.61 130.74 320.25 125.63"/>
<path stroke-width="3.01" d="M330.29 148.35 Q333.95 141.18 333.65 133.13"/>
<path stroke-width="1.98" d="M333.65 133.13 Q332.40 127.41 330.02 122.05"/>
<path stroke-width="1.98" d="M333.65 133.13 Q336.69 128.79 337.66 123.58"/>
<path stroke-width="4.55" d="M329.11 170.63 Q340.27 164.55 346.25 153.35"/>
<path stroke-width="3.01" d="M346.25 153.35 Q348.53 144.48 350.13 135.46"/>
<path stroke-width="1.98" d="M350.13 135.46 Q349.83 129.43 347.64 123.81"/>
<path stroke-width="1.98" d="M350.13 135.46 Q352.15 128.55 357.87 124.19"/>
<path stroke-width="3.01" d="M346.25 153.35 Q352.33 145.67 360.82 140.77"/>
<path stroke-width="1.98" d="M360.82 140.77 Q362.88 133.68 363.11 126.29"/>
<path stroke-width="1.98" d="M360.82 140.77 Q367.42 139.81 372.15 135.11"/>
<path stroke-width="6.90" d="M314.24 200.40 Q330.81 191.04 342.42 175.94"/>
<path stroke-width="4.55" d="M342.42 175.94 Q348.68 165.40 352.46 153.72"/>
<path stroke-width="3.01" d="M352.46 153.72 Q355.68 144.72 353.16 135.50"/>
<path stroke-width="1.98" d="M353.16 135.50 Q351.91 129.55 348.81 124.33"/>
<path stroke-width="1.98" d="M353.16 135.50 Q356.17 129.69 356.58 123.16"/>
<path stroke-width="3.01" d="M352.46 153.72 Q358.26 147.18 362.29 139.43"/>
<path stroke-width="1.98" d="M362.29 139.43 Q363.55 133.36 364.09 127.19"/>
<path stroke-width="1.98" d="M362.29 139.43 Q368.31 136.36 371.33 130.32"/>
<path stroke-width="4.55" d="M342.42 175.94 Q354.71 171.51 363.41 161.76"/>
<path stroke-width="3.01" d="M363.41 161.76 Q363.65 153.21 368.52 146.17"/>
<path stroke-width="1.98" d="M368.52 146.17 Q366.51 140.27 367.49 134.12"/>
<path stroke-width="1.98" d="M368.52 146.17 Q371.42 140.91 376.22 137.27"/>
<path stroke-width="3.01" d="M363.41 161.76 Q371.42 157.62 379.92 154.62"/>
<path stroke-width="1.98" d="M379.92 154.62 Q383.08 148.97 386.62 143.56"/>
<path stroke-width="1.98" d="M379.92 154.62 Q385.88 153.07 391.62 150.86"/>
<path stroke-width="10.45" d="M288.79 239.97 Q307.44 225.45 325.15 209.80"/>
<path stroke-width="6.90" d="M325.15 209.80 Q329.09 194.79 334.28 180.16"/>
<path stroke-width="4.55" d="M334.28 180.16 Q329.83 169.27 326.29 158.04"/>
<path stroke-width="3.01" d="M326.29 158.04 Q320.94 151.45 313.22 147.89"/>
<path stroke-width="1.98" d="M313.22 147.89 Q307.86 145.87 302.14 145.65"/>
<path stroke-width="1.98" d="M313.22 147.89 Q308.15 143.97 305.93 137.95"/>
<path stroke-width="3.01" d="M326.29 158.04 Q327.17 148.56 323.38 139.81"/>
<path stroke-width="1.98" d="M323.38 139.81 Q318.84 135.36 316.68 129.37"/>
<path stroke-width="1.98" d="M323.38 139.81 Q322.13 133.70 324.25 127.83"/>
<path stroke-width="4.55" d="M334.28 180.16 Q340.61 171.27 346.78 162.27"/>
<path stroke-width="3.01" d="M346.78 162.27 Q348.14 154.80 347.22 147.27"/>
<path stroke-width="1.98" d="M347.22 147.27 Q346.38 141.30 342.00 137.15"/>
<path stroke-width="1.98" d="M347.22 147.27 Q348.97 142.18 349.40 136.82"/>
<path stroke-width="3.01" d="M346.78 162.27 Q350.64 155.30 357.68 151.55"/>
<path stroke-width="1.98" d="M357.68 151.55 Q360.29 146.10 360.48 140.07"/>
<path stroke-width="1.98" d="M357.68 151.55 Q361.30 147.72 366.29 146.01"/>
<path stroke-width="6.90" d="M325.15 209.80 Q339.67 198.14 356.36 189.85"/>
<path stroke-width="4.55" d="M356.36 189.85 Q362.66 178.24 369.66 167.05"/>
<path stroke-width="3.01" d="M369.66 167.05 Q371.58 157.21 371.02 147.21"/>
<path stroke-width="1.98" d="M371.02 147.21 Q367.75 140.95 366.73 133.96"/>
<path stroke-width="1.98" d="M371.02 147.21 Q373.94 141.13 374.06 134.39"/>
<path stroke-width="3.01" d="M369.66 167.05 Q376.52 161.84 382.80 155.94"/>
<path stroke-width="1.98" d="M382.80 155.94 Q382.91 149.27 386.77 143.85"/>
<path stroke-width="1.98" d="M382.80 155.94 Q387.51 151.28 394.02 150.09"/>
<path stroke-width="4.55" d="M356.36 189.85 Q367.27 180.67 380.69 175.83"/>
<path stroke-width="3.01" d="M380.69 175.83 Q384.92 165.53 389.62 155.43"/>
<path stroke-width="1.98" d="M389.62 155.43 Q390.72 147.06 388.18 139.02"/>
<path stroke-width="1.98" d="M389.62 155.43 Q395.12 149.21 398.80 141.77"/>
<path stroke-width="3.01" d="M380.69 175.83 Q389.96 174.24 397.97 169.32"/>
<path stroke-width="1.98" d="M397.97 169.32 Q402.69 164.02 405.00 157.31"/>
<path stroke-width="1.98" d="M397.97 169.32 Q404.87 167.51 411.94 166.64"/>
</g>
<use href="#fc-right" transform="matrix(-1 0 0 1 512 0)"/>
</svg>
