<svg xmlns="http://www.w3.org/2000/svg" viewBox="0 0 512 512" width="512" height="512">
  <rect width="512" height="512" fill="#fdf6ef"/>
<path fill="none" stroke="#171412" stroke-width="8" stroke-linecap="round" d="M64.00 406.00 L448.00 406.00"/>
<g fill="none" stroke="#171412" stroke-linecap="round" stroke-linejoin="round">
<path stroke-width="24.00" d="M256.00 400.00 L256.00 308.00"/>
</g>
<g fill="none" stroke="#171412" stroke-linecap="round" stroke-linejoin="round" id="fc-right">
<path stroke-width="15.84" d="M256.00 308.00 Q282.10 282.42 289.52 246.64"/>
<path stroke-width="10.45" d="M289.52 246.64 Q289.43 219.27 289.20 191.90"/>
<path stroke-width="6.90" d="M289.20 191.90 Q277.22 175.40 274.31 155.22"/>
<path stroke-width="4.55" d="M274.31 155.22 Q259.65 148.30 250.58 134.86"/>
<path stroke-width="3.01" d="M250.58 134.86 Q240.41 133.47 231.39 128.56"/>
<path stroke-width="1.98" d="M231.39 128.56 Q224.82 129.46 218.32 128.18"/>
<path stroke-width="1.98" d="M231.39 128.56 Q225.12 125.25 222.21 118.77"/>
<path stroke-width="3.01" d="M250.58 134.86 Q249.00 123.72 242.49 114.54"/>
<path stroke-width="1.98" d="M242.49 114.54 Q237.81 107.02 230.24 102.44"/>
<path stroke-width="1.98" d="M242.49 114.54 Q242.80 106.35 240.01 98.65"/>
<path stroke-width="4.55" d="M274.31 155.22 Q273.77 142.23 272.81 129.26"/>
<path stroke-width="3.01" d="M272.81 129.26 Q266.14 122.68 261.62 114.46"/>
<path stroke-width="1.98" d="M261.62 114.46 Q256.20 111.62 251.58 107.61"/>
<path stroke-width="1.98" d="M261.62 114.46 Q258.62 108.91 259.46 102.65"/>
<path stroke-width="3.01" d="M272.81 129.26 Q273.72 119.69 274.98 110.15"/>
<path stroke-width="1.98" d="M274.98 110.15 Q272.98 103.90 269.90 98.09"/>
<path stroke-width="1.98" d="M274.98 110.15 Q276.77 102.91 280.03 96.21"/>
<path stroke-width="6.90" d="M289.20 191.90 Q285.15 171.03 294.58 151.97"/>
<path stroke-width="4.55" d="M294.58 151.97 Q284.15 141.54 282.15 126.93"/>
<path stroke-width="3.01" d="M282.15 126.93 Q274.96 119.35 264.79 116.99"/>
<path stroke-width="1.98" d="M264.79 116.99 Q258.26 115.28 251.53 114.87"/>
<path stroke-width="1.98" d="M264.79 116.99 Q259.71 111.67 254.50 106.49"/>
<path stroke-width="3.01" d="M282.15 126.93 Q282.69 116.94 276.79 108.87"/>
<path stroke-width="1.98" d="M276.79 108.87 Q270.73 105.02 265.82 99.79"/>
<path stroke-width="1.98" d="M276.79 108.87 Q277.29 101.25 274.90 94.00"/>
<path stroke-width="4.55" d="M294.58 151.97 Q298.19 138.65 302.72 125.62"/>
<path stroke-width="3.01" d="M302.72 125.62 Q299.21 116.88 300.67 107.57"/>
<path stroke-width="1.98" d="M300.67 107.57 Q295.01 102.71 292.47 95.70"/>
<path stroke-width="1.98" d="M300.67 107.57 Q303.01 101.92 302.69 95.82"/>
<path stroke-width="3.01" d="M302.72 125.62 Q309.38 117.86 312.04 107.99"/>
<path stroke-width="1.98" d="M312.04 107.99 Q311.29 100.61 309.14 93.51"/>
<path stroke-width="1.98" d="M312.04 107.99 Q316.17 101.28 323.33 97.99"/>
<path stroke-width="10.45" d="M289.52 246.64 Q306.81 229.17 315.53 206.19"/>
<path stroke-width="6.90" d="M315.53 206.19 Q321.04 189.78 319.74 172.53"/>
<path stroke-width="4.55" d="M319.74 172.53 Q310.72 163.98 308.65 151.72"/>
<path stroke-width="3.01" d="M308.65 151.72 Q302.66 145.91 294.65 143.58"/>
<path stroke-width="1.98" d="M294.65 143.58 Q288.84 143.21 283.06 142.55"/>
<path stroke-width="1.98" d="M294.65 143.58 Q291.75 137.83 287.33 133.16"/>
<path stroke-width="3.01" d="M308.65 151.72 Q308.52 142.69 307.38 133.72"/>
<path stroke-width="1.98" d="M307.38 133.72 Q302.94 127.92 301.29 120.81"/>
<path stroke-width="1.98" d="M307.38 133.72 Q309.17 127.42 310.86 121.10"/>
<path stroke-width="4.55" d="M319.74 172.53 Q322.01 159.11 330.52 148.48"/>
<path stroke-width="3.01" d="M330.52 148.48 Q329.79 138.11 326.86 128.14"/>
<path stroke-width="1.98" d="M326.86 128.14 Q322.66 122.25 319.37 115.80"/>
<path stroke-width="1.98" d="M326.86 128.14 Q329.96 120.75 327.79 113.02"/>
<path stroke-width="3.01" d="M330.52 148.48 Q334.40 140.20 340.17 133.10"/>
<path stroke-width="1.98" d="M340.17 133.10 Q338.20 126.33 339.87 119.49"/>
<path stroke-width="1.98" d="M340.17 133.10 Q346.21 129.60 350.07 123.78"/>
<path stroke-width="6.90" d="M315.53 206.19 Q320.22 189.52 330.74 175.76"/>
<path stroke-width="4.55" d="M330.74 175.76 Q327.26 164.15 331.94 152.98"/>
<path stroke-width="3.01" d="M331.94 152.98 Q330.15 145.26 324.75 139.45"/>
<path stroke-width="1.98" d="M324.75 139.45 Q319.09 137.71 315.78 132.81"/>
<path stroke-width="1.98" d="M324.75 139.45 Q322.05 134.98 321.68 129.76"/>
<path stroke-width="3.01" d="M331.94 152.98 Q335.68 145.65 335.37 137.42"/>
<path stroke-width="1.98" d="M335.37 137.42 Q334.09 131.57 331.66 126.10"/>
<path stroke-width="1.98" d="M335.37 137.42 Q338.48 132.99 339.47 127.66"/>
<path stroke-width="4.55" d="M330.74 175.76 Q342.14 169.54 348.26 158.09"/>
<path stroke-width="3.01" d="M348.26 158.09 Q350.58 149.02 352.22 139.80"/>
<path stroke-width="1.98" d="M352.22 139.80 Q351.91 133.64 349.67 127.89"/>
<path stroke-width="1.98" d="M352.22 139.80 Q354.29 132.74 360.14 128.28"/>
<path stroke-width="3.01" d="M348.26 158.09 Q354.47 150.24 363.15 145.24"/>
<path stroke-width="1.98" d="M363.15 145.24 Q365.25 137.98 365.49 130.43"/>
<path stroke-width="1.98" d="M363.15 145.24 Q369.90 144.25 374.74 139.44"/>
<path stroke-width="6.90" d="M315.53 206.19 Q332.48 196.62 344.34 181.19"/>
<path stroke-width="4.55" d="M344.34 181.19 Q350.74 170.41 354.60 158.47"/>
<path stroke-width="3.01" d="M354.60 158.47 Q357.90 149.27 355.32 139.85"/>
<path stroke-width="1.98" d="M355.32 139.85 Q354.04 133.77 350.87 128.42"/>
<path stroke-width="1.98" d="M355.32 139.85 Q358.40 133.91 358.82 127.23"/>
<path stroke-width="3.01" d="M354.60 158.47 Q360.53 151.79 364.65 143.86"/>
<path stroke-width="1.98" d="M364.65 143.86 Q365.94 137.66 366.49 131.35"/>
<path stroke-width="1.98" d="M364.65 143.86 Q370.81 140.73 373.89 134.55"/>
<path stroke-width="4.55" d="M344.34 181.19 Q356.90 176.66 365.80 166.69"/>
<path stroke-width="3.01" d="M365.80 166.69 Q366.04 157.95 371.02 150.75"/>
<path stroke-width="1.98" d="M371.02 150.75 Q368.96 144.72 369.97 138.44"/>
<path stroke-width="1.98" d="M371.02 150.75 Q373.99 145.37 378.89 141.66"/>
<path stroke-width="3.01" d="M365.80 166.69 Q373.99 162.46 382.68 159.39"/>
<path stroke-width="1.98" d="M382.68 159.39 Q385.90 153.61 389.53 148.08"/>
<path stroke-width="1.98" d="M382.68 159.39 Q388.76 157.80 394.63 155.54"/>
<path stroke-width="10.45" d="M289.52 246.64 Q308.58 231.80 326.69 215.80"/>
<path stroke-width="6.90" d="M326.69 215.80 Q330.71 200.45 336.02 185.50"/>
<path stroke-width="4.55" d="M336.02 185.50 Q331.47 174.36 327.86 162.89"/>
<path stroke-width="3.01" d="M327.86 162.89 Q322.38 156.14 314.49 152.51"/>
<path stroke-width="1.98" d="M314.49 152.51 Q309.01 150.44 303.16 150.22"/>
<path stroke-width="1.98" d="M314.49 152.51 Q309.31 148.50 307.04 142.35"/>
<path stroke-width="3.01" d="M327.86 162.89 Q328.75 153.19 324.88 144.26"/>
<path stroke-width="1.98" d="M324.88 144.26 Q320.24 139.70 318.03 133.58"/>
<path stroke-width="1.98" d="M324.88 144.26 Q323.60 138.01 325.76 132.01"/>
<path stroke-width="4.55" d="M336.02 185.50 Q342.49 176.41 348.80 167.21"/>
<path stroke-width="3.01" d="M348.80 167.21 Q350.19 159.58 349.25 151.87"/>
<path stroke-width="1.98" d="M349.25 151.87 Q348.39 145.77 343.91 141.54"/>
<path stroke-width="1.98" d="M349.25 151.87 Q351.03 146.67 351.47 141.19"/>
<path stroke-width="3.01" d="M348.80 167.21 Q352.75 160.08 359.94 156.25"/>
<path stroke-width="1.98" d="M359.94 156.25 Q362.60 150.68 362.80 144.51"/>
<path stroke-width="1.98" d="M359.94 156.25 Q363.64 152.33 368.74 150.59"/>
<path stroke-width="6.90" d="M326.69 215.80 Q341.53 203.87 358.59 195.40"/>
<path stroke-width="4.55" d="M358.59 195.40 Q365.04 183.54 372.19 172.09"/>
<path stroke-width="3.01" d="M372.19 172.09 Q374.14 162.04 373.58 151.81"/>
<path stroke-width="1.98" d="M373.58 151.81 Q370.24 145.41 369.19 138.27"/>
<path stroke-width="1.98" d="M373.58 151.81 Q376.56 145.60 376.68 138.71"/>
<path stroke-width="3.01" d="M372.19 172.09 Q379.20 166.77 385.61 160.73"/>
<path stroke-width="1.98" d="M385.61 160.73 Q385.73 153.92 389.68 148.38"/>
<path stroke-width="1.98" d="M385.61 160.73 Q390.43 155.98 397.09 154.76"/>
<path stroke-width="4.55" d="M358.59 195.40 Q369.75 186.02 383.46 181.07"/>
<path stroke-width="3.01" d="M383.46 181.07 Q387.78 170.54 392.59 160.21"/>
<path stroke-width="1.98" d="M392.59 160.21 Q393.72 151.67 391.11 143.45"/>
<path stroke-width="1.98" d="M392.59 160.21 Q398.22 153.86 401.97 146.25"/>
<path stroke-width="3.01" d="M383.46 181.07 Q392.93 179.45 401.13 174.42"/>
<path stroke-width="1.98" d="M401.13 174.42 Q405.95 169.00 408.31 162.14"/>
<path stroke-width="1.98" d="M401.13 174.42 Q408.17 172.57 415.41 171.68"/>
</g>
<use href="#fc-right" transform="matrix(-1 0 0 1 512 0)"/>
</svg>
